<svg id="Groupe_89" data-name="Groupe 89" xmlns="http://www.w3.org/2000/svg" width="39.99" height="39.99" viewBox="0 0 39.99 39.99">
  <g id="bouée" transform="translate(7.021 6.655)">
    <path id="Tracé_32" data-name="Tracé 32" d="M32.283,23.36a13.1,13.1,0,1,1-13.1,13.076A13.1,13.1,0,0,1,32.283,23.36Zm-.028,19.864a6.752,6.752,0,1,0-4.776-1.992,6.76,6.76,0,0,0,4.776,1.992Zm-4,4.873c.036-.107.063-.184.084-.26.395-1.343.784-2.69,1.189-4.031.06-.2.034-.289-.172-.377a7.5,7.5,0,0,1-4.1-4.148c-.026-.063-.062-.122-.1-.19l-4.548,1.33A12.453,12.453,0,0,0,28.259,48.1Zm7.358-4.847c.344,1.571.687,3.127,1.036,4.71a12.462,12.462,0,0,0,7.278-7.549l-4.548-1.333a7.683,7.683,0,0,1-3.767,4.179ZM20.8,32.027a.6.6,0,0,0,.1.055l4.418.975c.172.039.236-.041.305-.174a6.794,6.794,0,0,1,1.988-2.347c.62-.45,1.3-.812,1.993-1.247-.417-1.429-.858-2.924-1.309-4.473A12.43,12.43,0,0,0,20.8,32.027Zm15.865-7.065a1.254,1.254,0,0,0-.063.153q-.487,2.183-.963,4.366c-.034.162.023.223.153.291a7.434,7.434,0,0,1,3.135,3.1.291.291,0,0,0,.377.177c.962-.221,1.928-.427,2.891-.64.513-.112,1.025-.229,1.577-.352A12.45,12.45,0,0,0,36.661,24.961Z" transform="translate(-19.179 -23.36)" fill="#5da6c1"/>
  </g>
  <g id="Tracé_240" data-name="Tracé 240" fill="none">
    <path d="M19.995,0A19.995,19.995,0,1,1,0,19.995,19.995,19.995,0,0,1,19.995,0Z" stroke="none"/>
    <path d="M 19.99493408203125 2.000003814697266 C 15.18831443786621 2.000003814697266 10.66938400268555 3.871803283691406 7.270595550537109 7.270595550537109 C 3.871803283691406 10.66938400268555 2.000003814697266 15.18831443786621 2.000003814697266 19.99493408203125 C 2.000003814697266 24.80155372619629 3.871803283691406 29.32048416137695 7.270595550537109 32.71927261352539 C 10.66938400268555 36.11806488037109 15.18831443786621 37.98986434936523 19.99493408203125 37.98986434936523 C 24.80155372619629 37.98986434936523 29.32048416137695 36.11806488037109 32.71927261352539 32.71927261352539 C 36.11806488037109 29.32048416137695 37.98986434936523 24.80155372619629 37.98986434936523 19.99493408203125 C 37.98986434936523 15.18831443786621 36.11806488037109 10.66938400268555 32.71927261352539 7.270595550537109 C 29.32048416137695 3.871803283691406 24.80155372619629 2.000003814697266 19.99493408203125 2.000003814697266 M 19.99493408203125 3.814697265625e-06 C 31.03783416748047 3.814697265625e-06 39.98986434936523 8.952033996582031 39.98986434936523 19.99493408203125 C 39.98986434936523 31.03783416748047 31.03783416748047 39.98986434936523 19.99493408203125 39.98986434936523 C 8.952033996582031 39.98986434936523 3.814697265625e-06 31.03783416748047 3.814697265625e-06 19.99493408203125 C 3.814697265625e-06 8.952033996582031 8.952033996582031 3.814697265625e-06 19.99493408203125 3.814697265625e-06 Z" stroke="none" fill="#5da6c1"/>
  </g>
</svg>
