<svg id="Groupe_88" data-name="Groupe 88" xmlns="http://www.w3.org/2000/svg" width="40.01" height="40.01" viewBox="0 0 40.01 40.01">
  <g id="Tracé_239" data-name="Tracé 239" transform="translate(1.992 40.01) rotate(-93)" fill="none">
    <path d="M19.035,0A19.035,19.035,0,1,1,0,19.035,19.035,19.035,0,0,1,19.035,0Z" stroke="none"/>
    <path d="M 19.03511810302734 2 C 14.48487854003906 2 10.20697784423828 3.771957397460938 6.989467620849609 6.989467620849609 C 3.771957397460938 10.20697784423828 2 14.48487854003906 2 19.03511810302734 C 2 23.58535766601562 3.771957397460938 27.86325836181641 6.989467620849609 31.08076858520508 C 10.20697784423828 34.29827880859375 14.48487854003906 36.07023620605469 19.03511810302734 36.07023620605469 C 23.58535766601562 36.07023620605469 27.86325836181641 34.29827880859375 31.08076858520508 31.08076858520508 C 34.29827880859375 27.86325836181641 36.07023620605469 23.58535766601562 36.07023620605469 19.03511810302734 C 36.07023620605469 14.48487854003906 34.29827880859375 10.20697784423828 31.08076858520508 6.989467620849609 C 27.86325836181641 3.771957397460938 23.58535766601562 2 19.03511810302734 2 M 19.03511810302734 0 C 29.54791831970215 0 38.07023620605469 8.522317886352539 38.07023620605469 19.03511810302734 C 38.07023620605469 29.54791831970215 29.54791831970215 38.07023620605469 19.03511810302734 38.07023620605469 C 8.522317886352539 38.07023620605469 0 29.54791831970215 0 19.03511810302734 C 0 8.522317886352539 8.522317886352539 0 19.03511810302734 0 Z" stroke="none" fill="#5da6c1"/>
  </g>
  <path id="service_come" data-name="service come" d="M26.288,31.51h9.134a1.618,1.618,0,0,1,1.709,1.713c0,3.561-.013,7.122.01,10.681A1.711,1.711,0,0,1,35.4,45.647q-9.111-.015-18.224,0a1.643,1.643,0,0,1-1.692-1.3.9.9,0,0,1-.023-.211V33.11a1.607,1.607,0,0,1,1.654-1.593h6.3Zm.019.457H17.15A1.166,1.166,0,0,0,15.909,33.2c0,.236.012.474,0,.708a.447.447,0,0,0,.206.428c3.054,2.306,6.11,4.6,9.147,6.917a1.4,1.4,0,0,0,2.061,0c3.038-2.322,6.1-4.623,9.158-6.928a.4.4,0,0,0,.2-.384c-.017-.22,0-.444,0-.666a1.184,1.184,0,0,0-1.305-1.3Zm4.03,7.582c-.079.059-.143.1-.2.151q-1.41,1.063-2.819,2.12a1.621,1.621,0,0,1-2.064,0l-2.616-1.983-.384-.288c-2.075,1.569-4.131,3.124-6.188,4.675A.169.169,0,0,0,16,44.46a1.209,1.209,0,0,0,1.187.724H35.554a1.186,1.186,0,0,0,1.005-.669.213.213,0,0,0-.077-.32c-.806-.6-1.6-1.205-2.4-1.81Zm6.326-4.788-5.952,4.5,5.952,4.5Zm-20.734.014v8.976l5.938-4.493Z" transform="translate(-6.045 -18.724)" fill="#5da6c1" stroke="#5da6c1" stroke-width="1"/>
</svg>
