<svg xmlns="http://www.w3.org/2000/svg" width="115.153" height="20.2" viewBox="0 0 115.153 20.2">
  <g id="logositelitesoft2019" transform="translate(-112.929 -24)">
    <path id="Tracé_3" data-name="Tracé 3" d="M191.857,44.2h-5.668a8.151,8.151,0,0,1-5.748-1.907,6.727,6.727,0,0,1-1.988-5.13V24h3.09V38.156a5.246,5.246,0,0,0,.416,2.23,4.111,4.111,0,0,0,1.076,1.437,3.768,3.768,0,0,0,1.49.766,6.693,6.693,0,0,0,1.666.214h5.668Z" transform="translate(-65.523 0)" fill="#bcbcbc"/>
    <path id="Tracé_4" data-name="Tracé 4" d="M236.122,44.222h-3.09V24.05h3.09Z" transform="translate(-104.737 -0.036)" fill="#bcbcbc"/>
    <path id="Tracé_5" data-name="Tracé 5" d="M259.163,26.111V44.242h-3.088V26.111h-6.824V24.1h16.708v2.014Z" transform="translate(-116.39 -0.069)" fill="#bcbcbc"/>
    <path id="Tracé_6" data-name="Tracé 6" d="M327.245,44.2h-5.668a8.151,8.151,0,0,1-5.748-1.907,6.728,6.728,0,0,1-1.988-5.13V24h13.431v1.476H318.7a2.115,2.115,0,0,0-1.006.35,1.566,1.566,0,0,0-.538.764,4.409,4.409,0,0,0-.2,1.276c-.017.521-.026,1.147-.026,1.881V32.73h7.334v1.237h-7.334v4.055a5.246,5.246,0,0,0,.416,2.23,4.1,4.1,0,0,0,1.076,1.437,3.768,3.768,0,0,0,1.49.766,6.7,6.7,0,0,0,1.666.215h5.668Z" transform="translate(-162.795 0)" fill="#bcbcbc"/>
    <path id="Tracé_7" data-name="Tracé 7" d="M368.9,25.5a8.62,8.62,0,0,1,4.579-1.357,21.7,21.7,0,0,1,3.8.309,20.3,20.3,0,0,1,3.639,1.032q-.214,1.023-.375,2.338a12.067,12.067,0,0,0-1.208-.7,11.682,11.682,0,0,0-1.317-.551,13.685,13.685,0,0,0-1.666-.457q-.939-.2-2.282-.416a8.185,8.185,0,0,0-1.5.242,4.079,4.079,0,0,0-1.276.564,2.88,2.88,0,0,0-.873.927,2.309,2.309,0,0,0-.3,1.276,1.618,1.618,0,0,0,.309.912,4.821,4.821,0,0,0,.806.9,6.581,6.581,0,0,0,1.169.821,12.432,12.432,0,0,0,1.4.671l3.976,1.666a5.721,5.721,0,0,1,1.653,1.021,5.914,5.914,0,0,1,1.115,1.328,4.991,4.991,0,0,1,.6,1.478,5.7,5.7,0,0,1,.148,1.49,5.028,5.028,0,0,1-.577,2.2,5.266,5.266,0,0,1-1.4,1.653,6.3,6.3,0,0,1-2.041,1.047,8.437,8.437,0,0,1-2.511.362,16.979,16.979,0,0,1-3.641-.39q-1.787-.388-3.586-.952c.071-.322.135-.69.187-1.1s.117-.833.189-1.263a6.888,6.888,0,0,0,1.409.967,8.6,8.6,0,0,0,1.533.605,10.717,10.717,0,0,0,1.664.335q.874.107,1.84.135a7.529,7.529,0,0,0,1.518-.148,3.662,3.662,0,0,0,1.237-.483,2.306,2.306,0,0,0,.819-.927,3.162,3.162,0,0,0,.27-1.5,3.848,3.848,0,0,0-.135-.912,4.614,4.614,0,0,0-.416-1.061,4.3,4.3,0,0,0-.753-.995,3.255,3.255,0,0,0-1.2-.738L371.462,34.3a6.951,6.951,0,0,1-3.2-2.11,4.276,4.276,0,0,1-.993-2.859A4.475,4.475,0,0,1,368.9,25.5Z" transform="translate(-201.183 -0.104)" fill="#bcbcbc"/>
    <path id="Tracé_8" data-name="Tracé 8" d="M439.786,37.155a8.021,8.021,0,0,1-.51,2.94,5.891,5.891,0,0,1-1.5,2.217,6.882,6.882,0,0,1-2.417,1.411,9.751,9.751,0,0,1-3.225.5,8.285,8.285,0,0,1-5.868-1.894,6.723,6.723,0,0,1-2.029-5.169V31.111a6.731,6.731,0,0,1,2.029-5.171,8.3,8.3,0,0,1,5.868-1.892,9.751,9.751,0,0,1,3.225.5,6.882,6.882,0,0,1,2.417,1.411,5.9,5.9,0,0,1,1.5,2.215,8.038,8.038,0,0,1,.51,2.942ZM427.738,40.23a3.891,3.891,0,0,0,1.089,1.437,4.123,4.123,0,0,0,1.5.766,5.566,5.566,0,0,0,1.666.2,6.007,6.007,0,0,0,1.679-.187,3.957,3.957,0,0,0,1.518-.753,3.881,3.881,0,0,0,1.087-1.45,5.432,5.432,0,0,0,.416-2.256V30.279a5.441,5.441,0,0,0-.416-2.258,3.913,3.913,0,0,0-1.087-1.45,3.954,3.954,0,0,0-1.518-.751A6.009,6.009,0,0,0,432,25.63a5.63,5.63,0,0,0-1.666.2,4.122,4.122,0,0,0-1.5.766,3.875,3.875,0,0,0-1.089,1.437,5.338,5.338,0,0,0-.416,2.243v7.708A5.338,5.338,0,0,0,427.738,40.23Z" transform="translate(-242.108 -0.033)" fill="#bcbcbc"/>
    <path id="Tracé_9" data-name="Tracé 9" d="M495.348,25.7a6.674,6.674,0,0,0-1.666.215,3.763,3.763,0,0,0-1.491.766,4.1,4.1,0,0,0-1.074,1.45,5.234,5.234,0,0,0-.418,2.217v3.76h7.334v1.235H490.7v8.919h-3.116c0-.071.006-.171.015-.3s.013-.332.013-.618V31.181a6.725,6.725,0,0,1,1.988-5.13,8.143,8.143,0,0,1,5.748-1.907h2.524V25.7Z" transform="translate(-287.624 -0.103)" fill="#bcbcbc"/>
    <path id="Tracé_10" data-name="Tracé 10" d="M538.04,26.111V44.242h-3.088V26.111h-6.824V24.1h16.708v2.014Z" transform="translate(-316.753 -0.069)" fill="#bcbcbc"/>
  </g>
</svg>
