<svg id="Calque_1" data-name="Calque 1" xmlns="http://www.w3.org/2000/svg" viewBox="0 0 16 16"><defs><style>.cls-1{fill:none;}.cls-2{fill:#1d82c5;}</style></defs><rect class="cls-1" width="16" height="16"/><path id="home-svgrepo-com" class="cls-2" d="M15.72,6.29l-2-1.63V2.05a.53.53,0,0,0-.53-.53H11.92a.53.53,0,0,0-.53.53v.71L8.72.58a1.2,1.2,0,0,0-1.44,0l-7,5.71c-.32.26-.3.48-.26.6s.17.29.58.29h1v7.51a1,1,0,0,0,1,1h3a1,1,0,0,0,1-.95v-3.1a.52.52,0,0,1,.51-.5H9a.48.48,0,0,1,.46.5v3.08a1,1,0,0,0,1,1h3a1,1,0,0,0,1-1V7.18h1c.41,0,.54-.18.58-.29S16,6.55,15.72,6.29Z"/><rect class="cls-1" width="16" height="16"/></svg>