<svg xmlns="http://www.w3.org/2000/svg" width="1504.251" height="1499" viewBox="0 0 1504.251 1499">
  <g id="icoCloud" transform="translate(4.979 -0.273)">
    <path id="Ellipse_18" data-name="Ellipse 18" d="M731.837,0c404.182,0,731.837,323.231,731.837,721.956s-327.654,721.956-731.837,721.956S0,1120.68,0,721.956,327.654,0,731.837,0Z" transform="translate(15.021 27.069)" fill="none" stroke="#0d7fc3" stroke-width="40"/>
    <g id="cloud_icon" data-name="cloud icon" transform="translate(218.098 353.133)">
      <path id="Tracé_50" data-name="Tracé 50" d="M929.149,318.565a127.5,127.5,0,0,0-96.388-70.124C811.979,122.984,692.067,38.07,565.016,58.406A233.385,233.385,0,0,0,400.607,170.285c-3.952,0-7.777-.382-11.6-.382A158.682,158.682,0,0,0,237.846,280.222l-5.6-.033a189.525,189.525,0,1,0-8.16,378.859H436.116a89.822,89.822,0,0,1,90.2,85.678H509.873a22.376,22.376,0,0,0-22.5,22.121,21.736,21.736,0,0,0,4.208,12.75L533.4,837.544a22.695,22.695,0,0,0,36.719,0L611.935,779.6a22.057,22.057,0,0,0-5.291-30.982,22.5,22.5,0,0,0-12.75-4.144H578.212a141.013,141.013,0,0,0-141.841-136.55h-204a138.6,138.6,0,0,1-2.486-277.18,147.108,147.108,0,0,1,24.225,1.849l25.882,4.016,3.634-25.5a106.269,106.269,0,0,1,120.23-89.248h0a33.357,33.357,0,0,1,6.375,1.084l19.7,3.825,8.606-17.913a182.768,182.768,0,0,1,242.246-85.36,179.2,179.2,0,0,1,103.656,150.83l1.53,24.671,25.053-.765h3a76.5,76.5,0,0,1,73.056,52.784l5.674,17.722h20.91a119.721,119.721,0,0,1-.637,239.441H689.9a89.758,89.758,0,0,1-90.268-89.249l-.765-2.167h14.726a22.376,22.376,0,0,0,22.5-22.248,21.739,21.739,0,0,0-4.207-12.75l-41.819-58.011a22.822,22.822,0,0,0-36.719,0L511.53,481.762a22.12,22.12,0,0,0,5.291,31.046,22.822,22.822,0,0,0,12.75,4.08h18.3v2.167A141.14,141.14,0,0,0,689.836,659.3H912.957A170.528,170.528,0,0,0,929.341,318.82Z" transform="translate(-34.216 -55.398)" fill="#0d7fc3"/>
    </g>
    <rect id="Rectangle_91" data-name="Rectangle 91" width="1499" height="1499" transform="translate(0.273 0.273)" fill="none"/>
  </g>
</svg>
