<svg id="Calque_1" data-name="Calque 1" xmlns="http://www.w3.org/2000/svg" viewBox="0 0 115 115.24"><defs><style>.cls-1,.cls-2{fill:none;}.cls-2{stroke:#1d82c5;stroke-miterlimit:10;stroke-width:2px;}.cls-3{fill:#1d82c5;}</style></defs><rect class="cls-1" y="0.24" width="115" height="115"/><ellipse id="Ellipse_18" data-name="Ellipse 18" class="cls-2" cx="57.34" cy="57.61" rx="54.71" ry="55.53"/><g id="cloud_icon" data-name="cloud icon"><path id="Tracé_50" data-name="Tracé 50" class="cls-3" d="M84.71,47.17a9.54,9.54,0,0,0-7.21-5.4,17.36,17.36,0,0,0-32.3-6l-.87,0A11.92,11.92,0,0,0,33,44.21h-.41a14.59,14.59,0,0,0-1.28,29.13H47.86a6.8,6.8,0,0,1,6.74,6.59H53.37a1.7,1.7,0,0,0-1.68,1.7,1.68,1.68,0,0,0,.31,1l3.13,4.46a1.67,1.67,0,0,0,2.37.39,1.71,1.71,0,0,0,.37-.39L61,82.62a1.72,1.72,0,0,0-.38-2.36l0,0a1.72,1.72,0,0,0-1-.32H58.48a10.68,10.68,0,0,0-10.61-10.5H32.63a10.66,10.66,0,0,1-.19-21.32h0a12.16,12.16,0,0,1,1.81.14l1.93.31.28-2a8,8,0,0,1,9-6.86h0a2.83,2.83,0,0,1,.48.08l1.47.3L48,38.73a13.49,13.49,0,0,1,18.1-6.57,13.77,13.77,0,0,1,7.75,11.6l.12,1.9,1.87-.06h.22a5.73,5.73,0,0,1,5.46,4.06L82,51h1.56a9.21,9.21,0,0,1,0,18.42H66.83a6.8,6.8,0,0,1-6.75-6.86h0L60,62.41h1.1A1.68,1.68,0,0,0,62.8,60.7h0a1.7,1.7,0,0,0-.31-1l-3.13-4.46A1.66,1.66,0,0,0,57,54.89a1.58,1.58,0,0,0-.36.37l-3.13,4.46a1.73,1.73,0,0,0,.38,2.37l0,0a1.63,1.63,0,0,0,1,.31h1.37v.17A10.7,10.7,0,0,0,66.82,73.37H83.5a13.13,13.13,0,0,0,1.22-26.18Z" transform="translate(0 0.24)"/></g><rect class="cls-1" x="1.51" width="111.98" height="115.22"/></svg>