<svg id="Calque_1" data-name="Calque 1" xmlns="http://www.w3.org/2000/svg" viewBox="0 0 115 115"><defs><style>.cls-1,.cls-2{fill:none;}.cls-2{stroke:#1b81c4;stroke-miterlimit:10;stroke-width:2px;}.cls-3{fill:#1b81c4;}</style></defs><rect class="cls-1" width="115" height="115"/><circle id="Ellipse_20" data-name="Ellipse 20" class="cls-2" cx="57.5" cy="57.81" r="56"/><g id="Groupe_34" data-name="Groupe 34"><path id="Tracé_52" data-name="Tracé 52" class="cls-3" d="M85,28.89H52.62a1.49,1.49,0,0,0-1.48,1.49V83.24a1.49,1.49,0,0,0,1.48,1.49H85a1.49,1.49,0,0,0,1.49-1.49V30.38A1.49,1.49,0,0,0,85,28.89ZM64.35,31.22a.56.56,0,0,1,.56-.56h7.26a.56.56,0,0,1,.55.56v.18a.56.56,0,0,1-.55.56H64.91a.56.56,0,0,1-.56-.56Zm4.47,52.86Zm15.82-4.19H53v-46H84.64Z"/><path id="Tracé_53" data-name="Tracé 53" class="cls-3" d="M47.4,45.47h-20a1,1,0,0,0-.92,1V83.68a1,1,0,0,0,.92,1h20a1,1,0,0,0,.92-1V46.51a1,1,0,0,0-.92-1ZM34.65,47.1a.38.38,0,0,1,.35-.39h4.48a.37.37,0,0,1,.34.39v.13a.38.38,0,0,1-.34.4H35a.37.37,0,0,1-.34-.4Zm2.82,37.17a1.22,1.22,0,1,1,1.21-1.21h0a1.21,1.21,0,0,1-1.21,1.21Zm9.7-2.94H27.65V49H47.17Z"/></g></svg>