<svg xmlns="http://www.w3.org/2000/svg" width="1539" height="1539" viewBox="0 0 1539 1539">
  <g id="icoMobile" transform="translate(19 19)">
    <circle id="Ellipse_20" data-name="Ellipse 20" cx="749.5" cy="749.5" r="749.5" transform="translate(1 1)" fill="none" stroke="#0d7fc3" stroke-miterlimit="10" stroke-width="40"/>
    <g id="Groupe_34" data-name="Groupe 34" transform="translate(335.498 363.353)">
      <path id="Tracé_52" data-name="Tracé 52" d="M503.924,28.08H70.559A19.978,19.978,0,0,0,50.635,48V755.341a19.978,19.978,0,0,0,19.924,19.924H503.924a19.978,19.978,0,0,0,19.924-19.924V48A19.978,19.978,0,0,0,503.924,28.08ZM227.463,59.217a7.493,7.493,0,0,1,7.466-7.466h97.132a7.493,7.493,0,0,1,7.466,7.466v2.489a7.493,7.493,0,0,1-7.467,7.467H234.943a7.493,7.493,0,0,1-7.466-7.467Zm59.772,707.324ZM498.946,710.5H75.59V95.332H498.946Z" transform="translate(279.025 -28.08)" fill="#0d7fc3"/>
      <path id="Tracé_53" data-name="Tracé 53" d="M305.68,44.72H38.331a13.274,13.274,0,0,0-12.31,13.943V556.068A13.274,13.274,0,0,0,38.3,570.078H305.68a13.274,13.274,0,0,0,12.284-14.01V58.663a13.274,13.274,0,0,0-12.284-14.01ZM135.115,66.611a4.978,4.978,0,0,1,4.643-5.272h59.906a4.978,4.978,0,0,1,4.6,5.259V68.35a4.978,4.978,0,0,1-4.6,5.259H139.758a4.978,4.978,0,0,1-4.6-5.259Zm37.64,497.379a16.3,16.3,0,1,1,16.3-16.3h0a16.3,16.3,0,0,1-16.3,16.3Zm129.794-39.447H41.409V91.994h261.14Z" transform="translate(-25.998 177.107)" fill="#0d7fc3"/>
    </g>
  </g>
</svg>
