<svg id="Calque_1" data-name="Calque 1" xmlns="http://www.w3.org/2000/svg" viewBox="0 0 16 16"><defs><style>.cls-1{fill:none;}.cls-2{fill:#1480c4;}.cls-3{fill:#bcbcbb;}</style></defs><rect class="cls-1" width="16" height="16"/><g id="contact"><path id="Tracé_69" data-name="Tracé 69" class="cls-2" d="M.93,3.1c.79-.32,13.52-.28,14.13,0-.15.18-.28.34-.43.49q-2.9,3-5.81,6c-.67.68-1,.69-1.62,0L1.31,3.54C1.19,3.42,1.09,3.28.93,3.1Z"/><path id="Tracé_70" data-name="Tracé 70" class="cls-3" d="M6,9.28c1.74,1.8,2,2.07,4,0l5,4c-.56.33-13.27.38-14,0Z"/><path id="Tracé_71" data-name="Tracé 71" class="cls-3" d="M.29,12.76C.23,9.73.22,6.7.3,3.67l.22-.06L5.59,8.82l-5,4Z"/><path id="Tracé_72" data-name="Tracé 72" class="cls-3" d="M10.41,8.83l5.08-5.21c.36.73.35,8.45,0,9.22Z"/></g></svg>