<svg id="Calque_1" data-name="Calque 1" xmlns="http://www.w3.org/2000/svg" viewBox="0 0 16 16"><defs><style>.cls-1{fill:none;}.cls-2{fill:#fff;}</style></defs><rect class="cls-1" x="6.65" y="7.41" width="1.63" height="1.63"/><path class="cls-2" d="M10.32,10.13a2,2,0,0,1-.42-.05,1.14,1.14,0,0,0-1.24.32c-.63.54-.73.56-1.32,0a1.38,1.38,0,0,0-1.43-.34c-.56.13-.81,0-1-.54A1.42,1.42,0,0,0,3.81,8.4a.59.59,0,0,1-.53-.64.46.46,0,0,1,.05-.2A1.43,1.43,0,0,0,2.94,6c-.45-.47-.42-.68,0-1.17a1.37,1.37,0,0,0,.37-1.42c-.17-.62-.05-.81.57-1A1.42,1.42,0,0,0,5,1.31C5.16.7,5.38.57,6,.74A1.39,1.39,0,0,0,7.43.36c.51-.47.66-.48,1.16,0a1.42,1.42,0,0,0,1.46.39c.61-.16.83,0,1,.61a1.34,1.34,0,0,0,1,1c.63.2.76.43.6,1.06A1.34,1.34,0,0,0,13,4.79c.5.52.5.72,0,1.24a1.38,1.38,0,0,0-.35,1.43c.16.57,0,.85-.56,1A1.41,1.41,0,0,0,11,9.56C10.91,9.93,10.7,10.2,10.32,10.13Zm1.53-4.69A3.86,3.86,0,0,0,8,1.55H8A3.93,3.93,0,0,0,4.11,5.37,4,4,0,0,0,8,9.31,3.92,3.92,0,0,0,11.85,5.44Z"/><path class="cls-2" d="M4.24,9.28c.12.31.25.61.37.92.22.56.46.7,1,.58A1.6,1.6,0,0,1,7.13,11a1,1,0,0,1,.43,1.31c-.3,1.06-.54,2.15-.81,3.22a1.34,1.34,0,0,1-.22.36,1.69,1.69,0,0,1-.36-.23,5.33,5.33,0,0,1-.77-.87.66.66,0,0,0-1-.22c-.41.21-.75.28-1.12.44s-.51,0-.42-.32c.41-1.79.84-3.59,1.27-5.38Z"/><path class="cls-2" d="M11.9,9.33c.41,1.73.83,3.46,1.23,5.19a1.85,1.85,0,0,1,0,.47,2,2,0,0,1-.48-.06,10.12,10.12,0,0,1-1.08-.43.63.63,0,0,0-.87.18l0,.05c-.33.42-.7.8-1.12,1.27a3.54,3.54,0,0,1-.25-.52c-.28-1.12-.56-2.24-.81-3.38a1.39,1.39,0,0,1,0-.76c.35-.39.73-.82,1.36-.71H10c1,.23,1.15.17,1.52-.83.07-.18.16-.35.24-.53Z"/><path class="cls-2" d="M10.2,3.33l.87.81L9.19,6,7.94,7.25a.55.55,0,0,1-.77.11l-.11-.11c-.51-.51-1-1-1.6-1.56l.83-.61,1,1.16Z"/><rect class="cls-1" width="16" height="16"/></svg>