<svg id="Calque_1" data-name="Calque 1" xmlns="http://www.w3.org/2000/svg" viewBox="0 0 16 16"><defs><style>.cls-1{fill:#bcbcbb;}.cls-2{fill:#1d82c5;}.cls-3{fill:none;}</style></defs><polygon class="cls-1" points="0.53 7.54 2.7 3.84 4.38 4.32 6.63 3.84 5.61 5.69 5.82 6.19 6.91 6.52 8.46 5.58 9.39 6.96 10.86 7.89 12.96 10.37 12.72 11.1 12.19 11.25 11.8 11.85 10.86 12.3 10.4 13.1 9.78 13.26 9.17 13.78 8 13.13 7.65 11.68 7.14 11.1 6.75 10.42 6.21 10.37 5.57 9.75 5 9.75 3.97 9.43 3.33 9.81 0.53 7.54"/><path class="cls-2" d="M7.86,13.41c-.37.66-.75.74-1.33.36a2.18,2.18,0,0,0-.62-.22s-.12,0-.16,0c-.3-.24-.58-.6-.91-.69A1.1,1.1,0,0,1,4,12.06c0-.12-.19-.19-.3-.27a1.24,1.24,0,0,1-.59-1.29.55.55,0,0,0-.2-.38C2,9.41,1.16,8.7.27,8a.49.49,0,0,1-.14-.77Q1.24,5.38,2.32,3.49c.19-.34.37-.42.64-.14l0,0a2.07,2.07,0,0,0,2.6.53A8.5,8.5,0,0,1,8,3.28a1.8,1.8,0,0,1,1.06.19,19.62,19.62,0,0,1,2,1.12.64.64,0,0,0,.68,0c.72-.35,1.46-.64,2.19-1,.33-.17.51-.12.64.29.43,1.4.88,2.8,1.34,4.19.13.38.05.57-.28.74-.71.38-1.4.8-2.1,1.19a.59.59,0,0,0-.37.52,1,1,0,0,1-.78.94c-.12,0-.22.2-.33.3s0,.06,0,.09c-.18.52-.76.49-1,.82s-.53.76-1,.8a.44.44,0,0,0-.25.11.92.92,0,0,1-1.41.16C8.21,13.69,8.05,13.56,7.86,13.41ZM3.33,9.81c.25-.16.48-.42.64-.38a3.53,3.53,0,0,0,1.67.16c.32.54.9.62,1.31,1,.16.14.26.35.42.48a1.33,1.33,0,0,1,.54,1.29c0,.14,0,.37,0,.42A9.73,9.73,0,0,0,9,13.5c.08,0,.28-.06.33-.16A.46.46,0,0,0,9.26,13c-.32-.37-.66-.72-1-1.08-.13-.15-.33-.32-.12-.52s.33,0,.43.12c.43.43.85.87,1.25,1.33.23.26.43.18.63,0s.1-.42-.09-.61c-.47-.49-.93-1-1.37-1.5-.08-.09-.07-.28-.09-.42a1.44,1.44,0,0,1,.41.05c.09,0,.16.16.24.24l1.23,1.34a.43.43,0,0,0,.73,0,.47.47,0,0,0-.06-.74c-.29-.26-.56-.57-.84-.86a7.72,7.72,0,0,1-.68-.72c-.07-.08,0-.26,0-.39a1,1,0,0,1,.35,0c.1,0,.17.15.25.23l1.38,1.43a.48.48,0,0,0,.75,0c.22-.29.08-.48-.12-.7-.41-.44-.8-.91-1.21-1.36-.18-.2-.35-.47-.57-.57A4,4,0,0,1,8.43,5.73l-.82.41a10.45,10.45,0,0,1-1.1.57.92.92,0,0,1-1.06-.38,1.07,1.07,0,0,1,.14-1.15c.2-.31.44-.59.67-.89a13,13,0,0,0-1.57.48.8.8,0,0,1-.59,0c-.47-.27-.92-.59-1.4-.91L.53,7.54ZM14.12,4.16c-.82.36-1.6.69-2.35,1.06A.74.74,0,0,1,11,5.16c-.64-.4-1.3-.77-1.95-1.14a1.54,1.54,0,0,0-1.22-.17A3.67,3.67,0,0,0,5.92,5.6c-.23.36,0,.68.33.57A13.08,13.08,0,0,0,7.5,5.56a6.15,6.15,0,0,1,1.2-.28c.06,0,.18.14.21.23a2.54,2.54,0,0,0,1.43,1.83,5.82,5.82,0,0,1,1.71,1.5c.23.26.45.53.69.78.08.08.23.16.3.12.83-.45,1.65-.92,2.48-1.39ZM4.38,11.64a2.54,2.54,0,0,0,.2.52c.12.17.29.24.4-.05.2-.5.41-1,.6-1.48a.55.55,0,0,0,0-.4.37.37,0,0,0-.34-.07A1.8,1.8,0,0,0,4.38,11.64Zm3.06.52c0-.05,0-.26-.08-.35s-.39-.3-.48-.24a1.35,1.35,0,0,0-.37,1.18.69.69,0,0,0,.47.66c.21.08.37.05.39-.27S7.41,12.57,7.44,12.16ZM6.65,11c-.2-.27-.45-.38-.61-.13a4.94,4.94,0,0,0-.58,1.28.57.57,0,0,0,.58.76A2.24,2.24,0,0,1,6.65,11Zm-2.76.23.48-1.11c-.25-.33-.44-.18-.62.08C3.45,10.66,3.48,10.91,3.89,11.25Z" transform="translate(0)"/><rect class="cls-3" width="16" height="16"/></svg>