<svg id="Calque_1" data-name="Calque 1" xmlns="http://www.w3.org/2000/svg" viewBox="0 0 16 16"><defs><style>.cls-1{fill:none;}.cls-2{fill:#1f82c5;}.cls-3{fill:#bcbcbb;}</style></defs><rect class="cls-1" width="16" height="16"/><g id="faq"><path id="faq-2" class="cls-2" d="M6.43,11.39l0-.59A4.86,4.86,0,0,1,8,6.87C9.1,5.67,9.73,4.78,9.73,3.76s-.82-1.93-2.42-2a5,5,0,0,0-2.58.71L4.14,1.08A7.33,7.33,0,0,1,7.78.18C10.71.18,12,1.79,12,3.52c0,1.54-1,2.65-2.2,4a4.21,4.21,0,0,0-1.45,3.34l0,.59Z"/><ellipse id="Ellipse_23" data-name="Ellipse 23" class="cls-3" cx="7.48" cy="14.55" rx="1.5" ry="1.28"/></g></svg>