<svg id="Calque_1" data-name="Calque 1" xmlns="http://www.w3.org/2000/svg" viewBox="0 0 16 16"><defs><style>.cls-1{fill:#1d82c5;}.cls-2{fill:#bcbcbb;}.cls-3{fill:none;}</style></defs><path id="desktopp" class="cls-1" d="M9.08,12.9a1.39,1.39,0,0,0,1.39,1.37c.12,0,.25.16.37.25-.11.08-.21.23-.32.23-1.75,0-3.51,0-5.27,0l-.07-.3a4.09,4.09,0,0,0,1.11-.41,4.48,4.48,0,0,0,.78-1l-.14-.18H1.5C.37,12.9.22,12.74.21,11.6V2.79c0-.94.21-1.15,1.13-1.15H14.72c.92,0,1.1.19,1.1,1.17v8.87c0,1-.18,1.21-1.14,1.22H9.08Zm-1-10.74c-2.2,0-4.41,0-6.62,0-.54,0-.74.15-.73.73q0,4.37,0,8.73c0,.61.19.77.76.77q6.56,0,13.1,0c.53,0,.74-.14.73-.72q0-4.38,0-8.73c0-.6-.17-.79-.76-.78C12.41,2.18,10.25,2.16,8.09,2.16Z"/><rect id="Rectangle_65" data-name="Rectangle 65" class="cls-2" x="1.25" y="2.82" width="13.54" height="8.9"/><rect class="cls-3" width="16" height="16"/></svg>