<svg id="Calque_1" data-name="Calque 1" xmlns="http://www.w3.org/2000/svg" viewBox="0 0 16 16"><defs><style>.cls-1{fill:#1d82c5;}.cls-2{fill:#bcbcbb;}.cls-3{fill:none;}</style></defs><path class="cls-1" d="M3.34,16a1.31,1.31,0,0,1-.88-1.41c0-3.72,0-7.44,0-11.16,0-.92.42-1.35,1.33-1.35h.47c.09,0,.13,0,.13.13s0,.16-.14.16H3.64a.86.86,0,0,0-.91.87V14.56c0,.84.29,1.14,1.13,1.14h8.35c.75,0,1.06-.32,1.06-1.07V3.41c0-.76-.3-1.07-1-1.07h-.5c-.1,0-.12-.07-.12-.15s0-.14.12-.14a3.56,3.56,0,0,1,1.08.07,1.33,1.33,0,0,1,.74.8V15.09a1,1,0,0,1-.88.88Z" transform="translate(0 -0.03)"/><path class="cls-1" d="M8,3.49H5.6c-.36,0-.51-.14-.51-.5s0-.65,0-1a.42.42,0,0,1,.46-.47,2.46,2.46,0,0,0,.77,0c.23-.09.14-.44.26-.65A1.58,1.58,0,0,1,8.14,0,1.53,1.53,0,0,1,9.41,1.3c0,.18.09.25.27.23s.5,0,.75,0a.39.39,0,0,1,.43.4c0,.39,0,.77,0,1.16s-.2.39-.47.39C9.58,3.48,8.78,3.49,8,3.49Z" transform="translate(0 -0.03)"/><path class="cls-1" d="M11.34,14.16c-.08,0-.12-.06-.18-.12l-.61-.62c-.11-.12-.18-.14-.29,0s-.39.41-.59.61-.18.23-.3.1,0-.22.11-.31l.6-.6c.11-.1.1-.17,0-.28s-.43-.43-.64-.64-.17-.16-.07-.27.18,0,.26.07a6.69,6.69,0,0,1,.59.6c.15.18.25.15.38,0s.39-.4.59-.6.14-.16.24-.07,0,.18,0,.26-.42.44-.64.64-.13.2,0,.32.44.45.66.67a.17.17,0,0,1,.06.2C11.45,14.15,11.4,14.16,11.34,14.16Z" transform="translate(0 -0.03)"/><path class="cls-1" d="M11.49,5.21a.32.32,0,0,1-.13.24c-.2.21-.4.43-.61.62s-.12.2,0,.31.43.43.64.65c.07.07.14.15.06.24s-.18,0-.26,0-.41-.39-.59-.61-.26-.15-.4,0-.39.4-.59.6-.15.14-.24,0,0-.17,0-.25c.22-.21.42-.44.64-.64s.13-.22,0-.34-.39-.4-.59-.6-.19-.17-.07-.29.19,0,.26.09.43.42.63.64.17.12.27,0l.68-.69s.11-.11.19-.06S11.48,5.22,11.49,5.21Z" transform="translate(0 -0.03)"/><path class="cls-2" d="M6.35,6.55H4.51c-.12,0-.29,0-.28-.16s.16-.13.27-.13H8.18c.12,0,.29,0,.28.16s-.16.13-.27.13Z" transform="translate(0 -0.03)"/><path class="cls-1" d="M12,8.43c0,.08-.06.13-.1.18-.51.57-1,1.14-1.51,1.72-.11.12-.2.16-.33,0l-.91-.91c-.07-.08-.16-.17-.06-.27s.18,0,.26.07l.7.71c.12.14.19.12.31,0,.43-.51.88-1,1.32-1.5.06-.07.12-.16.23-.13A.12.12,0,0,1,12,8.43Z" transform="translate(0 -0.03)"/><path class="cls-2" d="M6.36,13.21H4.49c-.12,0-.26,0-.26-.14s.14-.13.24-.13H8.22c.1,0,.24,0,.24.13s-.15.14-.26.14Z" transform="translate(0 -0.03)"/><path class="cls-2" d="M6.34,9.49H8.19c.1,0,.26,0,.27.12s-.15.14-.26.14H4.49c-.11,0-.27,0-.26-.14s.17-.12.27-.12Z" transform="translate(0 -0.03)"/><path class="cls-2" d="M8,3.18c-.76,0-1.52,0-2.28,0-.27,0-.35-.1-.33-.35a6.26,6.26,0,0,0,0-.75c0-.22.08-.27.27-.26H9.11c.38,0,.75,0,1.13,0s.37.06.34.34a3.88,3.88,0,0,0,0,.68c0,.25-.07.35-.34.35C9.49,3.17,8.73,3.18,8,3.18Z" transform="translate(0 -0.03)"/><path class="cls-2" d="M7.92,1.53c-.34,0-.67,0-1,0-.17,0-.22-.05-.19-.21a1.21,1.21,0,0,1,2.4,0c0,.16,0,.17-.15.17Z" transform="translate(0 -0.03)"/><rect class="cls-3" width="16" height="16"/></svg>