<svg id="Calque_1" data-name="Calque 1" xmlns="http://www.w3.org/2000/svg" viewBox="0 0 16 16"><defs><style>.cls-1{fill:none;}.cls-2{fill:#bcbcbb;}.cls-3{fill:#1480c4;}</style></defs><rect class="cls-1" width="16" height="16"/><g id="Groupe_43" data-name="Groupe 43"><path id="Tracé_67" data-name="Tracé 67" class="cls-2" d="M2.19,3.25,3.25,2.09H5.67L7.1,3.79,1.85,4Z"/><rect id="Rectangle_77" data-name="Rectangle 77" class="cls-2" x="0.91" y="3.57" width="11.63" height="8.36"/><g id="Groupe_31" data-name="Groupe 31"><path id="dossier" class="cls-3" d="M13.36,5.53c.49,0,.92,0,1.34,0a1,1,0,0,1,1,1.38c-.74,2.16-1.5,4.33-2.27,6.48a1.63,1.63,0,0,1-1.61,1.11H1.42c-.82,0-1.19-.37-1.2-1.2,0-1.13,0-2.25,0-3.38V4.27C.22,3.38.61,3,1.49,3a.74.74,0,0,0,.81-.56,1.25,1.25,0,0,1,1.3-.92c.51,0,1,0,1.51,0a1.61,1.61,0,0,1,1.47.75A1.47,1.47,0,0,0,8.06,3c1.37,0,2.74,0,4.1,0a1.06,1.06,0,0,1,1.21.89,1.6,1.6,0,0,1,0,.31C13.37,4.61,13.36,5,13.36,5.53ZM15,6.41l-.36,0H4.26a.91.91,0,0,0-.93.72q-1.06,3-2.12,6.09c-.05.14-.07.28-.12.48H11.62a.92.92,0,0,0,1.07-.72h0v0q1-2.88,2-5.75c.08-.23.14-.46.24-.74Zm-2.43-.88c0-.43,0-.81,0-1.19s-.11-.53-.51-.53c-1.47,0-2.95,0-4.42,0a1.4,1.4,0,0,1-1.31-.59,1.82,1.82,0,0,0-2-.89,4.17,4.17,0,0,1-.5,0,.66.66,0,0,0-.75.5,1.25,1.25,0,0,1-1.4,1c-.42,0-.56.11-.56.54,0,2,0,3.92,0,5.88,0,.14,0,.27,0,.43.06,0,.08,0,.08,0L2.58,6.68A1.62,1.62,0,0,1,4.2,5.53c1.38,0,2.77,0,4.15,0Z"/><path id="Tracé_37" data-name="Tracé 37" class="cls-3" d="M.62,13.49,3.41,6.3l11.84-.25-2.68,7.67-11.8.15Z"/></g><path id="Tracé_68" data-name="Tracé 68" class="cls-3" d="M1.11,10.66"/></g></svg>