<svg id="Calque_1" data-name="Calque 1" xmlns="http://www.w3.org/2000/svg" viewBox="0 0 16 16.04"><defs><style>.cls-1{fill:#fff;}.cls-2{fill:none;}</style></defs><path class="cls-1" d="M3.34,16a1.31,1.31,0,0,1-.88-1.41V3.4c0-.92.42-1.35,1.33-1.35h.47c.09,0,.13,0,.13.13s0,.16-.14.16H3.64a.86.86,0,0,0-.91.81V14.53c0,.84.29,1.14,1.13,1.14h8.35c.75,0,1.06-.32,1.06-1.07V3.38c0-.76-.3-1.07-1-1.07h-.5c-.1,0-.12-.07-.12-.15s0-.14.12-.14a3.56,3.56,0,0,1,1.08.07,1.33,1.33,0,0,1,.74.8V15.06a1,1,0,0,1-.88.88Z" transform="translate(0 0.04)"/><path class="cls-1" d="M8,3.46H5.6c-.36,0-.51-.14-.51-.5V2a.42.42,0,0,1,.36-.47h.1a2.49,2.49,0,0,0,.77,0c.23-.09.14-.44.26-.65A1.59,1.59,0,0,1,8.14,0a1.53,1.53,0,0,1,1.27,1.3c0,.18.09.25.27.23s.5,0,.75,0a.39.39,0,0,1,.43.35V3.06c0,.39-.2.39-.47.39Z" transform="translate(0 0.04)"/><path class="cls-1" d="M11.34,14.13c-.08,0-.12-.06-.18-.12l-.61-.62c-.11-.12-.18-.14-.29,0s-.39.41-.59.61-.18.23-.3.1,0-.22.11-.31l.6-.6c.11-.1.1-.17,0-.28l-.64-.64c-.21-.21-.17-.16-.07-.27s.18,0,.26.07a6.67,6.67,0,0,1,.59.6c.15.18.25.15.38,0s.39-.4.59-.6.14-.16.24-.07,0,.18,0,.26-.42.44-.64.64-.13.2,0,.32.44.45.66.67a.18.18,0,0,1,.06.2A.35.35,0,0,1,11.34,14.13Z" transform="translate(0 0.04)"/><path class="cls-1" d="M11.49,5.18a.32.32,0,0,1-.13.24c-.2.21-.4.43-.61.62s-.12.2,0,.31.43.43.64.65.14.15.06.24-.18,0-.26,0-.41-.39-.59-.61-.26-.15-.4,0l-.59.6c-.2.2-.15.14-.24,0s0-.17,0-.25c.22-.21.42-.44.64-.64s.13-.22,0-.34-.39-.4-.59-.6-.19-.17-.07-.29.19,0,.26.09.43.42.63.64.17.12.27,0l.68-.69s.11-.11.19-.06S11.48,5.19,11.49,5.18Z" transform="translate(0 0.04)"/><path class="cls-1" d="M6.35,6.52H4.51c-.12,0-.29,0-.28-.16s.16-.13.27-.13H8.18c.12,0,.29,0,.28.16s-.16.13-.27.13Z" transform="translate(0 0.04)"/><path class="cls-1" d="M12,8.4c0,.08-.06.13-.1.18-.51.57-1,1.14-1.51,1.72-.11.12-.2.16-.33,0l-.91-.91c-.07-.08-.16-.17-.06-.27s.18,0,.26.07l.7.71c.12.14.19.12.31,0,.43-.51.88-1,1.32-1.5.06-.07.12-.16.23-.13A.11.11,0,0,1,12,8.4Z" transform="translate(0 0.04)"/><path class="cls-1" d="M6.36,13.18H4.49c-.12,0-.26,0-.26-.14s.14-.13.24-.13H8.22c.1,0,.24,0,.24.13s-.15.14-.26.14Z" transform="translate(0 0.04)"/><path class="cls-1" d="M6.34,9.46H8.19c.1,0,.26,0,.27.12s-.15.14-.26.14H4.49c-.11,0-.27,0-.26-.14s.17-.12.27-.12Z" transform="translate(0 0.04)"/><path class="cls-1" d="M8,3.15H5.72c-.27,0-.35-.1-.33-.35s0-.5,0-.75.08-.27.27-.26h4.58c.38,0,.37.06.34.34a3.86,3.86,0,0,0,0,.68c0,.25-.07.35-.34.35C9.49,3.14,8.73,3.15,8,3.15Z" transform="translate(0 0.04)"/><path class="cls-1" d="M7.92,1.5h-1c-.17,0-.22-.05-.19-.21a1.21,1.21,0,0,1,2.4,0c0,.16,0,.17-.15.17Z" transform="translate(0 0.04)"/><rect class="cls-2" y="0.04" width="16" height="16"/></svg>