<svg id="Calque_1" data-name="Calque 1" xmlns="http://www.w3.org/2000/svg" viewBox="0 0 16 16"><defs><style>.cls-1{fill:none;}.cls-2{fill:#1d82c5;}</style></defs><rect class="cls-1" width="16" height="16"/><circle id="Ellipse_9" data-name="Ellipse 9" class="cls-2" cx="8.06" cy="8.4" r="1.8"/><ellipse id="Ellipse_10" data-name="Ellipse 10" class="cls-2" cx="10" cy="12.71" rx="1.56" ry="1.84"/><ellipse id="Ellipse_11" data-name="Ellipse 11" class="cls-2" cx="6.04" cy="12.71" rx="1.56" ry="1.84"/><path id="Tracé_29" data-name="Tracé 29" class="cls-2" d="M6.27,10.89a2.85,2.85,0,0,0,3.44,0v3.62l-3.79,0,.36-3.48"/><circle id="Ellipse_12" data-name="Ellipse 12" class="cls-2" cx="4.08" cy="4.43" r="1.8"/><ellipse id="Ellipse_13" data-name="Ellipse 13" class="cls-2" cx="3.08" cy="8.74" rx="2.56" ry="1.84"/><path id="Tracé_30" data-name="Tracé 30" class="cls-2" d="M4.89,7.6l-.38-.13c-.24-.57,1.23.39,1.23,1v1a1.06,1.06,0,0,1-1,1.06H3.12a1,1,0,0,1-1.06-1,.49.49,0,0,1,0-.12l.24-2.32"/><circle id="Ellipse_14" data-name="Ellipse 14" class="cls-2" cx="11.92" cy="4.43" r="1.8"/><ellipse id="Ellipse_15" data-name="Ellipse 15" class="cls-2" cx="12.92" cy="8.74" rx="2.56" ry="1.84"/><path id="Tracé_31" data-name="Tracé 31" class="cls-2" d="M11.11,7.6l.38-.13c.24-.57-1.23.39-1.23,1v1a1.06,1.06,0,0,0,1,1.06h1.58a1,1,0,0,0,1.06-1,.49.49,0,0,0,0-.12l-.24-2.32"/></svg>