<svg id="Calque_1" data-name="Calque 1" xmlns="http://www.w3.org/2000/svg" viewBox="0 0 115 115"><defs><style>.cls-1,.cls-2{fill:none;}.cls-2{stroke:#1b81c4;stroke-miterlimit:10;stroke-width:2px;}</style></defs><rect class="cls-1" width="115" height="115"/><circle id="Ellipse_21" data-name="Ellipse 21" class="cls-2" cx="57.5" cy="57.5" r="56"/><path id="Tracé_54" data-name="Tracé 54" class="cls-2" d="M95.37,69.23c-.89,2.29-2.66,2.93-5,2.7-2-.19-3.08.91-3.86,2.73s-.8,3.3.83,4.59c2.71,2.14,2.55,4.69-.07,6.84-.52.43-1,1-1.43,1.41-2.13,2.08-3.77,2.07-5.89,0-2.32-2.3-4.24-2.49-6.65-.31a4.72,4.72,0,0,0-1,3c-.19,3.86-1,4.75-4.94,4.75H66.5c-4.29,0-5.28-.89-5.21-5.16,0-2-1.11-2.81-2.7-3.52s-3.07-1-4.33.6A8.84,8.84,0,0,1,53.07,88a3.49,3.49,0,0,1-4.82,0,36.59,36.59,0,0,1-3-3.1c-1.44-1.62-1.4-3.14,0-4.77a8.93,8.93,0,0,1,1-1.08,3.18,3.18,0,0,0,.89-4c-.7-1.77-1.51-3.26-3.76-3.15a16.68,16.68,0,0,1-2,0,3,3,0,0,1-2.93-3c-.07-1.5-.06-3,0-4.52a3.2,3.2,0,0,1,3-3.36,1.82,1.82,0,0,1,.33,0h.84c3,0,4.49-1.25,4.78-4.3a4.12,4.12,0,0,0-.68-2.28,11.78,11.78,0,0,0-1.61-1.7A3.16,3.16,0,0,1,45,48.31l.17-.17c1-1.08,2-2.11,3.08-3.09,1.62-1.49,3.25-1.44,4.89.08.25.22.48.47.71.71,1.81,1.79,2.39,1.91,4.57,1,2.63-1.09,2.85-1.4,2.86-4v-1.5a3.16,3.16,0,0,1,3-3c1.61-.08,3.24-.07,4.85,0a3,3,0,0,1,3,3v1.17c0,3.07,1.24,4.5,4.3,4.86a4.17,4.17,0,0,0,2.37-.87A9.63,9.63,0,0,0,80.42,45c1.74-1.57,3.27-1.59,5,0a33.2,33.2,0,0,1,2.86,2.83,3.46,3.46,0,0,1,.06,4.88l-.06.06c-.14.17-.3.32-.46.48-2.36,2.42-2.55,3.85-.48,6.49a3.47,3.47,0,0,0,2.57,1.12c2.38-.13,4.26.43,5.41,2.66Z"/><path id="Tracé_55" data-name="Tracé 55" class="cls-2" d="M66.74,56.06A10.32,10.32,0,0,0,56.39,66.37v.13A10.55,10.55,0,0,0,66.78,77,10.77,10.77,0,0,0,77.31,66.5,10.55,10.55,0,0,0,66.74,56.06Z"/><path id="Tracé_56" data-name="Tracé 56" class="cls-2" d="M36.39,19.63a3.31,3.31,0,0,1,1.7,3,2.35,2.35,0,0,0,1.2,1.53,1.89,1.89,0,0,0,1.57-.37c1.8-1.39,2.6-1.41,4.16.12,2,2,2,2.49.54,4.49a2.12,2.12,0,0,0-.31,1.76c.19.46.94.7,1.47,1,.86.5,2.35.85,2.47,1.48A10.78,10.78,0,0,1,48.84,37c-.07.35-1.13.44-1.71.71s-1.55.52-1.8,1a2.42,2.42,0,0,0,.4,2c1.24,1.72,1.22,2.4-.52,4.14s-2.42,1.78-4.14.53a2.42,2.42,0,0,0-2-.4,2.38,2.38,0,0,0-1,1.79,2.17,2.17,0,0,1-2.43,2.31c-3.36.1-3.38.11-4.15-3.22a1.65,1.65,0,0,0-2-1.13,1.81,1.81,0,0,0-.61.33c-2.18,1.63-4.93.79-5.57-1.88-.18-.74.49-1.68.76-2.53.19-.58.66-1.33.46-1.7a2.67,2.67,0,0,0-1.69-1.24c-2.16-.32-2.71-.85-2.72-3.14s.69-3.15,2.7-3.46a2.38,2.38,0,0,0,1.64-1A2.26,2.26,0,0,0,24,28.25c-1.3-1.73-1.25-2.46.58-4.27,1.67-1.66,2.42-1.68,4.15-.36a2.11,2.11,0,0,0,1.69.46,2.26,2.26,0,0,0,1.1-1.53,3.59,3.59,0,0,1,1.92-2.92Z"/><path id="Tracé_57" data-name="Tracé 57" class="cls-2" d="M39.5,34.43a4.78,4.78,0,0,0-4.66-4.7A5,5,0,0,0,30,34.56,4.8,4.8,0,0,0,35,39.17a4.59,4.59,0,0,0,4.53-4.65Z"/></svg>