<svg xmlns="http://www.w3.org/2000/svg" width="1540" height="1540" viewBox="0 0 1540 1540">
  <g id="icoReseaux" transform="translate(19 19)">
    <circle id="Ellipse_21" data-name="Ellipse 21" cx="750" cy="750" r="750" transform="translate(1 1)" fill="none" stroke="#0d7fc3" stroke-miterlimit="10" stroke-width="40"/>
    <path id="Tracé_54" data-name="Tracé 54" d="M800.055,452.133c-11.916,30.661-35.616,39.231-66.946,36.151-26.779-2.544-41.239,12.184-51.683,36.553s-10.711,44.185,11.113,61.457c36.285,28.653,34.143,62.8-.937,91.583-6.962,5.757-12.72,13.389-19.147,18.879-28.519,27.85-50.477,27.716-78.863,0-31.063-30.8-56.771-33.339-89.039-4.151a63.331,63.331,0,0,0-13.389,40.168c-2.544,51.683-13.389,63.6-66.143,63.6H413.505c-57.44,0-70.7-11.916-69.758-69.089,0-26.779-14.862-37.624-36.151-47.13s-41.105-13.389-57.976,8.034a118.507,118.507,0,0,1-15.933,15.8,46.6,46.6,0,0,1-64.537,0,496.207,496.207,0,0,1-40.168-41.507c-19.281-21.691-18.745-42.042,0-63.867a119.582,119.582,0,0,1,14.059-14.461,42.444,42.444,0,0,0,11.916-53.557c-9.373-23.7-20.218-43.649-50.344-42.176a198.79,198.79,0,0,1-26.779,0A40.168,40.168,0,0,1,38.6,448.25c-.937-20.084-.8-40.168,0-60.52a42.98,42.98,0,0,1,45.256-44.988H95.108c40.168,0,60.118-16.737,64-57.574a54.9,54.9,0,0,0-9.1-30.528,156.529,156.529,0,0,0-21.557-22.762,42.31,42.31,0,0,1,0-62.126c13.389-14.461,26.779-28.252,41.239-41.373,21.691-19.95,43.515-19.281,65.474,1.071,3.347,2.946,6.427,6.293,9.506,9.506,24.235,23.967,32,25.574,61.189,13.389,35.214-14.594,38.16-18.745,38.293-53.557V78.706a42.31,42.31,0,0,1,40.168-40.168c21.557-1.071,43.381-.937,64.938,0a40.168,40.168,0,0,1,40.168,40.168V94.371c0,41.105,16.6,60.252,57.574,65.072a56.235,56.235,0,0,0,31.733-11.649,133.893,133.893,0,0,0,21.155-19.816c23.3-21.021,43.783-21.289,66.946,0a445.176,445.176,0,0,1,38.293,37.892,46.193,46.193,0,0,1,0,66.143c-1.874,2.276-4.017,4.285-6.159,6.427-31.6,32.4-34.143,51.549-6.427,86.9a46.728,46.728,0,0,0,34.41,15c31.867-1.741,57.038,5.757,72.436,35.615Z" transform="translate(457.799 455.724)" fill="none" stroke="#0d7fc3" stroke-miterlimit="10" stroke-width="30"/>
    <path id="Tracé_55" data-name="Tracé 55" d="M194.477,55.56A138.312,138.312,0,0,0,55.9,195.345,141.257,141.257,0,0,0,195.012,335.531,144.2,144.2,0,0,0,336,195.345,141.257,141.257,0,0,0,194.477,55.56Z" transform="translate(680.042 675.96)" fill="none" stroke="#0d7fc3" stroke-miterlimit="10" stroke-width="30"/>
    <path id="Tracé_56" data-name="Tracé 56" d="M237.837,19.13A44.318,44.318,0,0,1,260.6,59.3a31.1,31.1,0,0,0,16.067,20.486,25.306,25.306,0,0,0,21.021-4.954c24.1-18.611,34.812-18.879,55.7,1.607,26.779,26.779,26.779,33.339,7.23,60.118a28.252,28.252,0,0,0-4.151,23.565c2.544,6.159,12.586,9.372,19.682,13.389,11.515,6.695,31.465,11.381,33.072,19.816a143.667,143.667,0,0,1-4.686,58.109c-.937,4.686-15.13,5.891-22.9,9.506s-20.753,6.962-24.1,13.389a32.268,32.268,0,0,0,5.356,26.779c16.6,23.03,16.335,32.134-6.962,55.432s-32.4,23.833-55.432,7.1a32.134,32.134,0,0,0-26.779-5.356,31.866,31.866,0,0,0-13.389,23.967,28.921,28.921,0,0,1-32.536,30.929c-44.988,1.339-45.256,1.473-55.566-43.114a21.958,21.958,0,0,0-35.348-10.711C107.693,381.177,70.872,369.93,62.3,334.18c-2.41-9.908,6.561-22.494,10.176-33.875,2.544-7.766,8.837-17.808,6.159-22.762a35.883,35.883,0,0,0-22.628-16.6C27.089,256.656,19.725,249.56,19.591,218.9s9.239-42.176,36.151-46.327A31.867,31.867,0,0,0,77.7,159.182a30.394,30.394,0,0,0-6.025-24.636c-17.406-23.163-16.737-32.938,7.766-57.172,22.36-22.226,32.4-22.494,55.566-4.82a27.85,27.85,0,0,0,22.628,6.159,30.126,30.126,0,0,0,14.728-20.486,47.934,47.934,0,0,1,25.707-39.1Z" transform="translate(230.316 224.618)" fill="none" stroke="#0d7fc3" stroke-miterlimit="10" stroke-width="30"/>
    <path id="Tracé_57" data-name="Tracé 57" d="M156.2,92.16A64,64,0,0,0,93.809,29.23,66.947,66.947,0,0,0,29.54,93.9a64.269,64.269,0,0,0,66.009,61.725A61.457,61.457,0,0,0,156.2,92.16Z" transform="translate(353.591 349.75)" fill="none" stroke="#0d7fc3" stroke-miterlimit="10" stroke-width="25"/>
  </g>
</svg>
