<svg xmlns="http://www.w3.org/2000/svg" width="1539" height="1539" viewBox="0 0 1539 1539">
  <g id="icoUltraMobile" transform="translate(19 19.448)">
    <circle id="Ellipse_22" data-name="Ellipse 22" cx="749.5" cy="749.5" r="749.5" transform="translate(1 0.552)" fill="none" stroke="#0d7fc3" stroke-miterlimit="10" stroke-width="40"/>
    <g id="Groupe_38" data-name="Groupe 38" transform="translate(348.006 421.301)">
      <path id="Tracé_58" data-name="Tracé 58" d="M425.3,221.71H409.793v-8.568a56.173,56.173,0,0,0-56.053-56.053h-8.808l-10.1-39.21V74.465a41.452,41.452,0,0,0-41.372-41.372H174.679a41.452,41.452,0,0,0-41.372,41.372v43.454l-10.1,39.21H114.4a56.173,56.173,0,0,0-56.053,56.053V488.641A56.173,56.173,0,0,0,114.4,544.694h10.143l8.768,34.045v51.208a41.452,41.452,0,0,0,41.372,41.372H293.457a41.452,41.452,0,0,0,41.372-41.372V578.632l8.768-34.045H353.74a56.173,56.173,0,0,0,56.053-56.053V472.265h10.33a15.548,15.548,0,0,0,15.495-15.495V368.942a15.548,15.548,0,0,0-15.481-15.455h-10.33V294.031H425.3A15.548,15.548,0,0,0,440.8,278.537V237.165A15.548,15.548,0,0,0,425.3,221.67ZM378.8,482.6a41.452,41.452,0,0,1-41.372,41.372H130.824A41.452,41.452,0,0,1,89.452,482.6V224.286a41.452,41.452,0,0,1,41.372-41.372H337.472a41.452,41.452,0,0,1,41.372,41.372Z" transform="translate(359.943 -21.509)" fill="#0d7fc3" stroke="#707070" stroke-width="1"/>
      <g id="Groupe_37" data-name="Groupe 37">
        <g id="Groupe_35" data-name="Groupe 35" transform="translate(0 64.461)">
          <path id="Tracé_59" data-name="Tracé 59" d="M300.978,48.158a95.264,95.264,0,0,0-32.751-6.873H75.033a95.263,95.263,0,0,0-32.751,6.873C33.874,51.935,27,79.708,27,89.317v33.845a179.743,179.743,0,0,0,3.817,33.845,90,90,0,0,0,14.747,30l66.022,82.317a58.027,58.027,0,0,1,10.93,31.1V400.516A31.029,31.029,0,0,1,106.9,425.793L96.693,436.8a101.146,101.146,0,0,0-6.913,33.5V529.25a97.187,97.187,0,0,0,7.167,33.365l11.838,11.838a97.183,97.183,0,0,0,33.365,7.167H201.1a97.2,97.2,0,0,0,33.365-7.167L246.3,562.614a97.2,97.2,0,0,0,7.167-33.365V470.315a101.151,101.151,0,0,0-6.913-33.5l-10.21-11.01a31.03,31.03,0,0,1-15.615-25.277V300.4a58.027,58.027,0,0,1,10.93-31.1l66.022-82.317a90,90,0,0,0,14.68-30,179.742,179.742,0,0,0,3.817-33.845V89.343C316.259,79.748,309.386,51.975,300.978,48.158Z" transform="translate(-27.001 15.168)" fill="none" stroke="#0d7fc3" stroke-miterlimit="10" stroke-width="40"/>
          <path id="Tracé_60" data-name="Tracé 60" d="M300.978,43.928a95.262,95.262,0,0,0-32.751-6.873H75.033a95.263,95.263,0,0,0-32.751,6.873C33.874,47.705,27,73.516,27,80.709s3.1,6.219,6.873-2.189S65.424,63.24,75.033,63.24H268.228a95.265,95.265,0,0,1,32.751,6.873c8.408,3.777,15.281,17.79,15.281,10.583S309.386,47.718,300.978,43.928Z" transform="translate(-27.001 -37.055)" fill="#0d7fc3" stroke="#707070" stroke-width="1"/>
        </g>
        <g id="Groupe_36" data-name="Groupe 36" transform="translate(34.806)">
          <rect id="Rectangle_66" data-name="Rectangle 66" width="28.654" height="62.072" fill="#0d7fc3" stroke="#707070" stroke-width="1"/>
          <rect id="Rectangle_67" data-name="Rectangle 67" width="14.32" height="62.072" transform="translate(42.974)" fill="#0d7fc3" stroke="#707070" stroke-width="1"/>
          <rect id="Rectangle_68" data-name="Rectangle 68" width="19.098" height="62.072" transform="translate(76.392)" fill="#0d7fc3" stroke="#707070" stroke-width="1"/>
          <rect id="Rectangle_69" data-name="Rectangle 69" width="23.876" height="62.072" transform="translate(119.365)" fill="#0d7fc3" stroke="#707070" stroke-width="1"/>
          <rect id="Rectangle_70" data-name="Rectangle 70" width="14.32" height="62.072" transform="translate(162.339)" fill="#0d7fc3" stroke="#707070" stroke-width="1"/>
          <rect id="Rectangle_71" data-name="Rectangle 71" width="19.098" height="62.072" transform="translate(195.757)" fill="#0d7fc3" stroke="#707070" stroke-width="1"/>
        </g>
      </g>
    </g>
  </g>
</svg>
