<svg id="Calque_1" data-name="Calque 1" xmlns="http://www.w3.org/2000/svg" viewBox="0 0 115 115"><defs><style>.cls-1,.cls-2,.cls-4{fill:none;}.cls-2,.cls-4{stroke:#1b81c4;stroke-miterlimit:10;}.cls-2{stroke-width:2px;}.cls-3{fill:#1b81c4;}.cls-4{stroke-width:1.94px;}</style></defs><rect class="cls-1" width="115" height="115"/><circle id="Ellipse_22" data-name="Ellipse 22" class="cls-2" cx="57.5" cy="57.5" r="56"/><g id="Groupe_38" data-name="Groupe 38"><path id="Tracé_58" data-name="Tracé 58" class="cls-3" d="M86.34,47.73H85.18v-.65a4.23,4.23,0,0,0-4.2-4.2h-.66L79.56,40V36.69a3.11,3.11,0,0,0-3.1-3.1h-8.9a3.11,3.11,0,0,0-3.1,3.1V40l-.76,2.94H63a4.21,4.21,0,0,0-4.2,4.2V67.73a4.23,4.23,0,0,0,4.2,4.2h.76l.66,2.55v3.84a3.11,3.11,0,0,0,3.1,3.1h8.9a3.11,3.11,0,0,0,3.1-3.1V74.47l.66-2.55H81a4.22,4.22,0,0,0,4.2-4.2V66.5H86a1.16,1.16,0,0,0,1.16-1.16V58.76A1.16,1.16,0,0,0,86,57.6h-.77V53.15h1.16A1.18,1.18,0,0,0,87.5,52v-3.1a1.17,1.17,0,0,0-1.16-1.16ZM82.86,67.27a3.11,3.11,0,0,1-3.1,3.1H64.27a3.11,3.11,0,0,1-3.1-3.1V47.92a3.11,3.11,0,0,1,3.1-3.1H79.76a3.11,3.11,0,0,1,3.1,3.1Z"/><g id="Groupe_37" data-name="Groupe 37"><g id="Groupe_35" data-name="Groupe 35"><path id="Tracé_59" data-name="Tracé 59" class="cls-4" d="M48,42.3a7.12,7.12,0,0,0-2.45-.52H31.1a7.12,7.12,0,0,0-2.45.52c-.63.28-1.15,2.36-1.15,3.08v2.54a13.64,13.64,0,0,0,.29,2.54,6.69,6.69,0,0,0,1.1,2.24l5,6.17a4.35,4.35,0,0,1,.82,2.33v7.5a2.35,2.35,0,0,1-1.17,1.9l-.77.82a7.7,7.7,0,0,0-.52,2.51v4.42a7.67,7.67,0,0,0,.54,2.5l.89.88a7.14,7.14,0,0,0,2.5.54h4.42a7.23,7.23,0,0,0,2.5-.54l.88-.88a7.19,7.19,0,0,0,.54-2.5V73.93A7.45,7.45,0,0,0,44,71.42l-.76-.82A2.32,2.32,0,0,1,42,68.7V61.2a4.27,4.27,0,0,1,.82-2.33l4.94-6.17a6.47,6.47,0,0,0,1.1-2.25,13.44,13.44,0,0,0,.29-2.53V45.39C49.17,44.67,48.66,42.59,48,42.3Z"/><path id="Tracé_60" data-name="Tracé 60" class="cls-3" d="M48,38.07a6.88,6.88,0,0,0-2.45-.51H31.1a6.88,6.88,0,0,0-2.45.51c-.63.28-1.15,2.22-1.15,2.76s.23.46.52-.17,2.36-1.14,3.08-1.14H45.58A7.1,7.1,0,0,1,48,40c.63.28,1.14,1.33,1.14.79S48.66,38.35,48,38.07Z"/></g><g id="Groupe_36" data-name="Groupe 36"><rect id="Rectangle_66" data-name="Rectangle 66" class="cls-3" x="30.11" y="32.72" width="2.15" height="4.65"/><rect id="Rectangle_67" data-name="Rectangle 67" class="cls-3" x="33.33" y="32.72" width="1.07" height="4.65"/><rect id="Rectangle_68" data-name="Rectangle 68" class="cls-3" x="35.83" y="32.72" width="1.43" height="4.65"/><rect id="Rectangle_69" data-name="Rectangle 69" class="cls-3" x="39.05" y="32.72" width="1.79" height="4.65"/><rect id="Rectangle_70" data-name="Rectangle 70" class="cls-3" x="42.27" y="32.72" width="1.07" height="4.65"/><rect id="Rectangle_71" data-name="Rectangle 71" class="cls-3" x="44.78" y="32.72" width="1.43" height="4.65"/></g></g></g></svg>