<svg id="Calque_1" data-name="Calque 1" xmlns="http://www.w3.org/2000/svg" viewBox="0 0 235 235"><defs><style>.cls-1{fill:none;}.cls-2{fill:#e40f17;}.cls-3{fill:#fffcfc;}.cls-4{fill:#fffbfc;}.cls-5{fill:#e30e16;}.cls-6{fill:#e41018;}</style></defs><rect class="cls-1" width="235" height="235"/><path class="cls-2" d="M20.43,121.56v-6.19a2.64,2.64,0,0,0,.79-1.81,19.57,19.57,0,0,1,1.58-4.5,19.31,19.31,0,0,1,2.47-3.73,17.56,17.56,0,0,1,6.5-5.64,20.62,20.62,0,0,1,10.56-2.82q71.19-.09,142.37,0c3.79,0,7.58-.33,11.37.35a26.86,26.86,0,0,1,6.45,1.87,30.39,30.39,0,0,1,3.9,2.55c2.72,1.78,4.19,4.52,6,7-.07,1.25,1,2.07,1.24,3.2s.59,2.4.75,3.58c.26,2,0,4,.09,6,0,.59-.32,1-.42,1.48a21.32,21.32,0,0,1-2.41,6.43,21.08,21.08,0,0,1-6.53,7.09,20.56,20.56,0,0,1-11.83,3.72q-70.15.08-140.3,0c-2.41,0-4.81,0-7.22,0a43.87,43.87,0,0,1-7-.33,22.92,22.92,0,0,1-4.29-1.14,21.49,21.49,0,0,1-10.19-8.08,16.38,16.38,0,0,1-3.05-7.39C20.6,122.82,21.2,121.83,20.43,121.56Zm68,13.55c0-4.21,0-8.26,0-12.32a2.76,2.76,0,0,1,.63-2,24.21,24.21,0,0,0,2.29-3.19c1.58-2.22,3.1-4.49,4.67-6.71,1.94-2.76,3.91-5.49,6-8.49V135c.12.1.17.18.23.18,8.65,0,17.3,0,26,0a5.82,5.82,0,0,0,4.06-2.05,5.53,5.53,0,0,0,1.43-2.47,21.7,21.7,0,0,0,.44-4.56c.05-5.28,0-10.57,0-15.86a12.34,12.34,0,0,0-.45-3.74c-.83-2.77-2.83-4.58-5.61-4.61-11.94-.13-23.88,0-35.78,0-.91,1.46-1.77,2.9-2.69,4.29s-1.89,2.8-2.9,4.16-1.63,2.89-2.93,4l-8.44-12.41H57.5V115.7H42.23V101.87H34.09v33.3c2.77-.06,5.48.07,8.25-.09v-13.9H57.53V135.1h8.26V102.39c1,1.5,1.88,2.78,2.77,4,1.25,1.75,2.56,3.46,3.78,5.23,2.06,3,4.06,6,6.26,8.94a3.32,3.32,0,0,1,.77,2.16c-.05,2.13,0,4.26,0,6.39v6Zm60.3-33.32a4.07,4.07,0,0,0-.54.72c-.91,1.95-1.79,3.92-2.71,5.88-1.34,2.87-2.91,5.64-4.09,8.6-.73,1.82-1.72,3.53-2.5,5.35-1.39,3.26-3.06,6.41-4.61,9.62-.48,1-.94,2-1.46,3.15h9.43l.44-.85a18.81,18.81,0,0,0,1.72-3.6,4.74,4.74,0,0,1,1.46-2.45h13.82l3.25,6.85h9.27c-.36-.82-.67-1.51-.95-2.21-1.23-3.07-2.94-5.9-4.19-9-1-2.52-2.46-4.87-3.57-7.38-1.48-3.36-3.06-6.69-4.65-10-.77-1.61-1.67-3.16-2.49-4.7Zm46.39,8.15H203c0-.54,0-1,0-1.48a6.71,6.71,0,0,0-6.74-6.72c-6.31.12-12.63.05-18.94,0a6.62,6.62,0,0,0-6.46,6.76c0,6.59,0,13.18,0,19.77a10.86,10.86,0,0,0,.43,2.7,4.87,4.87,0,0,0,.79,1.32,5.87,5.87,0,0,0,5.11,2.83q9.78,0,19.56,0a5.63,5.63,0,0,0,1.34-.24,6.17,6.17,0,0,0,4.7-4.74A18.35,18.35,0,0,0,203,127H194.9c-.16.29-.32.57-.45.86a3.8,3.8,0,0,1-3.92,2.41c-2.47-.08-4.94,0-7.41,0a3.75,3.75,0,0,1-3.63-3.66c0-5.56,0-11.12,0-16.68a2.64,2.64,0,0,1,.13-1,4.37,4.37,0,0,1,3.38-2.15c2.74,0,5.49,0,8.23,0a2.61,2.61,0,0,1,2,.76A27.85,27.85,0,0,1,195.11,109.94Z" transform="translate(0 0)"/><path class="cls-3" d="M88.42,135.11H79.35v-6c0-2.13,0-4.26,0-6.39a3.32,3.32,0,0,0-.77-2.16c-2.2-2.89-4.2-5.93-6.26-8.94-1.22-1.77-2.53-3.48-3.78-5.23-.89-1.26-1.74-2.54-2.77-4V135.1H57.53V121.18H42.34v13.9c-2.77.16-5.48,0-8.25.09v-33.3h8.14V115.7H57.5V101.85H75.38l8.44,12.41c1.3-1.14,2-2.71,2.93-4s2-2.75,2.9-4.16,1.78-2.83,2.69-4.29c11.9,0,23.84-.08,35.78,0,2.78,0,4.78,1.84,5.61,4.61a12.34,12.34,0,0,1,.45,3.74c-.05,5.29,0,10.58,0,15.86a21.7,21.7,0,0,1-.44,4.56,5.53,5.53,0,0,1-1.43,2.47,5.82,5.82,0,0,1-4.06,2.05c-8.65.07-17.3,0-25.95,0-.06,0-.11-.08-.23-.18V102.41c-2.13,3-4.1,5.73-6,8.49-1.57,2.22-3.09,4.49-4.67,6.71A24.21,24.21,0,0,1,89,120.8a2.76,2.76,0,0,0-.63,2C88.44,126.85,88.42,130.9,88.42,135.11Zm21.87-4.9h5.51c2.06,0,4.12,0,6.17,0a3.69,3.69,0,0,0,2.6-1.09,3.26,3.26,0,0,0,1-2.45c-.14-5.61,0-11.24-.09-16.86,0-1.88-1.08-2.92-3.09-3.09-1.16-.1-2.33,0-3.49,0h-8.61Z" transform="translate(0 0)"/><path class="cls-4" d="M148.72,101.79h7.63c.82,1.54,1.72,3.09,2.49,4.7,1.59,3.32,3.17,6.65,4.65,10,1.11,2.51,2.55,4.86,3.57,7.38,1.25,3.07,3,5.9,4.19,9,.28.7.59,1.39.95,2.21h-9.27l-3.25-6.85H145.86a4.74,4.74,0,0,0-1.46,2.45,18.81,18.81,0,0,1-1.72,3.6l-.44.85h-9.43c.52-1.13,1-2.15,1.46-3.15,1.55-3.21,3.22-6.36,4.61-9.62.78-1.82,1.77-3.53,2.5-5.35,1.18-3,2.75-5.73,4.09-8.6.92-2,1.8-3.93,2.71-5.88A4.07,4.07,0,0,1,148.72,101.79Zm8.63,21.31-4.92-10.93c-1.68,3.83-3.2,7.32-4.78,10.93Z" transform="translate(0 0)"/><path class="cls-3" d="M195.11,109.94a27.85,27.85,0,0,0-1.93-2.47,2.61,2.61,0,0,0-2-.76c-2.74,0-5.49,0-8.23,0a4.37,4.37,0,0,0-3.38,2.15,2.64,2.64,0,0,0-.13,1c0,5.56,0,11.12,0,16.68a3.75,3.75,0,0,0,3.63,3.66c2.47,0,4.94,0,7.41,0a3.8,3.8,0,0,0,3.92-2.41c.13-.29.29-.57.45-.86H203a18.35,18.35,0,0,1-.26,3.2,6.17,6.17,0,0,1-4.7,4.74,5.63,5.63,0,0,1-1.34.24q-9.78,0-19.56,0a5.87,5.87,0,0,1-5.11-2.83,4.87,4.87,0,0,1-.79-1.32,10.86,10.86,0,0,1-.43-2.7c0-6.59,0-13.18,0-19.77a6.62,6.62,0,0,1,6.46-6.76c6.31,0,12.63.1,18.94,0a6.71,6.71,0,0,1,6.74,6.72c0,.47,0,.94,0,1.48Z" transform="translate(0 0)"/><path class="cls-5" d="M110.29,130.21V106.72h8.61c1.16,0,2.33-.08,3.49,0,2,.17,3.06,1.21,3.09,3.09.08,5.62,0,11.25.09,16.86a3.26,3.26,0,0,1-1,2.45,3.69,3.69,0,0,1-2.6,1.09c-2-.06-4.11,0-6.17,0Z" transform="translate(0 0)"/><path class="cls-6" d="M157.35,123.1h-9.7c1.58-3.61,3.1-7.1,4.78-10.93Z" transform="translate(0 0)"/></svg>