<svg id="Calque_1" data-name="Calque 1" xmlns="http://www.w3.org/2000/svg" viewBox="0 0 115 115"><defs><style>.cls-1{fill:#de7113;}.cls-2{fill:#1c519e;}.cls-3{fill:#1e529e;}.cls-4{fill:#7380b7;}.cls-5{fill:none;}</style></defs><path d="M-21.66-55.49"/><path class="cls-1" d="M15,54.88c1.4-1.33,2.82-2.54,4.28-3.68A130.13,130.13,0,0,1,39.46,38,19.7,19.7,0,0,1,44,36.17a2.25,2.25,0,0,1,.63-.06c.51,0,.68.25.5.73a4.61,4.61,0,0,1-1,1.41A40,40,0,0,1,39.1,42.9a134,134,0,0,1-19.63,13,35.67,35.67,0,0,1-4.29,2s.05.07.08.08a47.94,47.94,0,0,1,8.37,4.74A65.52,65.52,0,0,1,32,69.36a15.78,15.78,0,0,1,2.41,2.69,2.46,2.46,0,0,1,.36.77c.09.43-.07.65-.51.68A3.84,3.84,0,0,1,33,73.25a25.82,25.82,0,0,1-4.83-2.31,73.64,73.64,0,0,1-12.42-9l-.86-.81c0,.94-.08,1.81-.13,2.68a62.51,62.51,0,0,1-1.05,9.36,5.63,5.63,0,0,1-.55,1.65c-.28.5-.6.5-.88,0a8.06,8.06,0,0,1-.73-2.45,70.66,70.66,0,0,1-.9-8.59c-.22-3.71-.29-7.43-.26-11.14,0-4,.18-8.08.58-12.1a33.43,33.43,0,0,1,.8-5.07,5.46,5.46,0,0,1,.39-1.09c.1-.2.19-.45.48-.45s.41.25.52.47a7.27,7.27,0,0,1,.55,1.77,49.74,49.74,0,0,1,.82,6.31C14.83,46.55,15,50.67,15,54.88Z"/><path class="cls-2" d="M95.65,50.6h7.47c.3,0,.37.09.36.37,0,.57,0,1.15,0,1.72,0,.27-.08.33-.34.33-1.82,0-3.65,0-5.48,0h-9.1a1.48,1.48,0,0,0-1.63,1.61v7.91a1.46,1.46,0,0,0,1.62,1.62H100a1.48,1.48,0,0,0,1.63-1.65c0-.78,0-1.57,0-2.35,0-.28-.06-.37-.36-.37-3,0-5.92,0-8.88,0-.33,0-.42-.08-.4-.41,0-.57,0-1.14,0-1.72,0-.23,0-.32.3-.32h11.42c.25,0,.31.08.31.32,0,1.75,0,3.51,0,5.26a3.79,3.79,0,0,1-3.61,3.64c-3.48,0-7,0-10.44,0a11.91,11.91,0,0,1-2.31-.08,3.78,3.78,0,0,1-3.11-3.63c0-2.88,0-5.75,0-8.62A3.79,3.79,0,0,1,88.3,50.6Z"/><path class="cls-3" d="M72.14,66.57c-2,0-4.08,0-6.12,0A3.77,3.77,0,0,1,62.42,63q-.06-4.37,0-8.73a3.79,3.79,0,0,1,3.7-3.62H78.18a3.83,3.83,0,0,1,3.71,3.73v8.51a3.79,3.79,0,0,1-3.6,3.72C76.24,66.6,74.19,66.57,72.14,66.57Zm0-13.57H66.47a1.48,1.48,0,0,0-1.63,1.61v7.94a1.45,1.45,0,0,0,1.57,1.59H77.94a1.45,1.45,0,0,0,1.56-1.56q0-4,0-8A1.48,1.48,0,0,0,77.89,53Z"/><path class="cls-2" d="M51.7,66.57c-2.3,0-4.6,0-6.9,0a3.76,3.76,0,0,1-3.65-3.63c0-4,0-8,0-12,0-.25.08-.29.3-.29q.91,0,1.83,0c.27,0,.33.08.32.34V62.46a1.48,1.48,0,0,0,1.7,1.68H58.44c.6,0,.6,0,.6.62s0,1,0,1.45-.12.38-.41.38H51.7Z"/><path class="cls-1" d="M31.29,58.6a2.35,2.35,0,0,1,2.59-2.29,2.58,2.58,0,0,1,1.7.75,2.06,2.06,0,0,1,0,2.94,2.51,2.51,0,0,1-2.55.62,2.19,2.19,0,0,1-1.66-1.69A1.26,1.26,0,0,1,31.29,58.6Z"/><path class="cls-4" d="M81.36,69.93c.35,0,.69,0,1,0s.24.1.24.27,0,.28-.24.27c-.65,0-1.29,0-1.94,0-.4,0-.44.21-.44.52s.06.53.46.51,1,0,1.45,0h.26c.39.08.58.56.52,1.27,0,.46-.29.74-.67.75H80c-.19,0-.26-.05-.26-.25s0-.29.27-.29c.63,0,1.26,0,1.9,0,.36,0,.44-.17.44-.48s-.06-.5-.43-.49-.94,0-1.42,0h-.22c-.41,0-.62-.39-.62-1.07s.22-1,.63-1S81,69.93,81.36,69.93Z"/><path class="cls-4" d="M41.44,71.7c0-.46,0-.92,0-1.38,0-.3.06-.41.38-.4.62,0,1.24,0,1.86,0s.79.21.81.71q0,1.08,0,2.16a.68.68,0,0,1-.78.71c-.65,0-1.31,0-2,0-.23,0-.31-.06-.3-.3C41.45,72.72,41.44,72.21,41.44,71.7Zm.37,0c0,.34,0,.67,0,1s.07.28.28.27c.54,0,1.09,0,1.64,0,.26,0,.4-.1.39-.37,0-.6,0-1.19,0-1.79a.31.31,0,0,0-.36-.36c-.57,0-1.14,0-1.72,0-.17,0-.24.06-.23.24S41.81,71.37,41.81,71.7Z"/><path class="cls-4" d="M93.38,71.72c0-.32,0-.65,0-1,0-.58.28-.82.86-.82h1.37c.51,0,.79.21.81.71q0,1.08,0,2.16c0,.49-.3.71-.81.71H94.25c-.58,0-.84-.24-.86-.82C93.37,72.36,93.38,72,93.38,71.72Zm2.69,0v-.85c0-.29-.12-.41-.41-.4-.49,0-1,0-1.49,0-.28,0-.42.1-.41.39V72.6c0,.26.12.38.39.38q.76,0,1.53,0c.29,0,.4-.13.39-.41Z"/><path class="cls-4" d="M104.28,73V70.14c0-.13,0-.21.18-.21s.2,0,.2.19c0,1,0,2,0,3,0,.18-.07.33-.26.36a.45.45,0,0,1-.5-.24c-.54-.81-1.08-1.63-1.63-2.44-.07-.11-.15-.22-.29-.41V73c0,.1,0,.2,0,.3s0,.18-.17.18-.21,0-.21-.19c0-1,0-2,0-3a.32.32,0,0,1,.25-.36.42.42,0,0,1,.48.2c.48.72,1,1.45,1.45,2.17C103.92,72.52,104.07,72.72,104.28,73Z"/><path class="cls-4" d="M55.17,72c0-.41,0-.82,0-1.23,0-.6.28-.84.88-.84H57.8c.2,0,.36,0,.36.27s-.16.26-.34.26H56c-.17,0-.34,0-.37.22a1.31,1.31,0,0,0,0,.76c0,.09.19,0,.28,0h2c.22,0,.3.06.3.29s-.12.25-.3.25c-.67,0-1.34,0-2,0-.23,0-.31.06-.3.29s0,.67,0,1c0,.14,0,.2-.19.2s-.19-.07-.19-.2Z"/><path class="cls-4" d="M63.31,72c0-.41,0-.82,0-1.23,0-.59.28-.83.86-.83s1.12,0,1.68,0c.17,0,.43-.13.44.25s-.28.27-.47.28c-.55,0-1.11,0-1.67,0-.35,0-.48.12-.47.45,0,.71-.06.56.57.57H66c.2,0,.29,0,.29.27S66.21,72,66,72H64c-.2,0-.29,0-.27.27s0,.67,0,1c0,.15,0,.23-.21.22s-.16-.1-.16-.22V72Z"/><path class="cls-4" d="M71.44,71.42c0-.38,0-.77,0-1.15,0-.14-.09-.35.2-.34s.17.2.17.32c0,.75,0,1.49,0,2.24,0,.43.05.48.49.49s.92,0,1.38,0,.44-.13.44-.44c0-.77,0-1.54,0-2.31,0-.14,0-.31.2-.3s.17.17.17.29c0,.81,0,1.61,0,2.42,0,.63-.27.87-.89.87h-1.3c-.58,0-.84-.24-.87-.82,0-.21,0-.42,0-.64Z"/><path class="cls-4" d="M50,71.73v1.52c0,.12,0,.25-.17.26s-.2-.11-.2-.26V70.16c0-.13,0-.24.19-.24s.18.12.18.25Z"/><path class="cls-4" d="M87.86,71.68V70.19c0-.14,0-.27.2-.27s.17.13.17.26v3.08c0,.13,0,.25-.17.25s-.2-.13-.2-.27Z"/><rect class="cls-5" width="115" height="115"/></svg>