<svg id="Calque_1" data-name="Calque 1" xmlns="http://www.w3.org/2000/svg" viewBox="0 0 115 115"><defs><style>.cls-1{fill:none;}.cls-2{fill:#e64822;}.cls-3{fill:#1e2038;}</style></defs><rect class="cls-1" width="115" height="115"/><path class="cls-2" d="M37.2,41.86c2.33,0,4.66-.07,7,0,.66,0,1.55-.44,1.81.81.17.76.77.11,1.07,0,4.63-2.21,9.12-2.36,13.35.9,1,.76,1.36-.13,1.95-.45a15.4,15.4,0,0,1,13.44-1c1.32.5,2.09,1.06.59,2.32A6.18,6.18,0,0,0,75,46.2c-1.19,2.31-1.93,4.64-5.68,3.52-2.38-.72-4.19,2-4.24,5.44-.07,4.9-.12,9.79,0,14.68.05,1.83-.44,2.48-2.29,2.29a25.9,25.9,0,0,0-4.66,0c-1.48.11-1.83-.49-1.8-1.87.08-4.2,0-8.39,0-12.59,0-.93,0-1.86-.08-2.79-.11-2.11-.64-4.19-2.71-5.05-2.27-.95-4.55-.34-6.63,1-1.15.74-1,1.81-1,2.89-.08,1.84.8,4.24-.35,5.37s-3.53.29-5.37.36c-1,0-2,0-3,0-.18-2.32.38-4.69-.36-7a.23.23,0,0,1-.15-.33c.85-.53.48-1.39.49-2.11C37.21,47.27,37.19,44.57,37.2,41.86Z"/><path class="cls-3" d="M27.15,68.51c0,3.93-.2,4.09-3.91,3.24-6.09-1.4-10.54-6.33-11.7-13-1-6,2-12.92,6.83-16,1.16-.74,1.77-.55,2.27.62a4.94,4.94,0,0,0,.56,1c1.39,1.89,2.1,3.26-.43,5.28-3,2.4-3.32,6.2-2.14,9.82,1.1,3.35,3.46,5.57,7,5.91C28.47,65.66,26.51,67.68,27.15,68.51Z"/><path class="cls-2" d="M82.59,70.76a15.53,15.53,0,0,1-2.77-26.14,19.66,19.66,0,0,1,2.6,6.59C79.94,55.14,80,59,82.76,62.78Q82.67,66.77,82.59,70.76Z"/><path class="cls-3" d="M82.59,70.76q.07-4,.17-8c5.4,4.47,9.63,4.11,14.55-1.24.29-.31.46-.81,1.1-.47,1.56.83,3.16,1.61,4.75,2.4,1,.5.24,1,0,1.49C99.39,71.91,89.5,74.69,82.59,70.76Z"/><path class="cls-3" d="M82.42,51.21a19.66,19.66,0,0,0-2.6-6.59c6-5.24,16-4.66,21.2,1.15.7.8.63,1.23-.14,1.78a7,7,0,0,0-1.08.88c-1.73,1.86-3.11,2.73-5.76.69C90.46,46.39,86.51,47.46,82.42,51.21Z"/><path class="cls-3" d="M37.2,41.86c0,2.71,0,5.41-.05,8.11,0,.72.36,1.58-.49,2.11-1.53-2.88-3.75-4.87-7.08-5.33-1-.14-1.48-.58-1.37-1.65a22.23,22.23,0,0,0,0-2.31c0-3.31,0-3.37,3.33-2.87A15.21,15.21,0,0,1,37.2,41.86Z"/><path class="cls-3" d="M36.81,52.41c.74,2.29.18,4.66.36,7-2.55,0-5.1,0-7.64.1-1.18,0-1.36-.42-1.4-1.47-.17-5-.2-5,4.84-5.06C34.23,52.93,35.7,53.72,36.81,52.41Z"/><path class="cls-2" d="M41.54,65.41c4.42,0,4.32,0,4.44,4.51.05,1.79-.47,2.29-2.19,2.14a35,35,0,0,0-5.12,0c-1.26.08-1.7-.41-1.53-1.6a4.09,4.09,0,0,0,0-.7C37.13,65.41,37.13,65.41,41.54,65.41Z"/></svg>