<svg id="Calque_1" data-name="Calque 1" xmlns="http://www.w3.org/2000/svg" viewBox="0 0 115 115"><defs><style>.cls-1{fill:none;}.cls-2{fill:#33293e;}.cls-3{fill:#e83268;}.cls-4{fill:#e72b65;}.cls-5{fill:#626261;}</style></defs><rect class="cls-1" width="115" height="115"/><path class="cls-2" d="M55.65,32.36a6,6,0,0,0,1.4.27,46.1,46.1,0,0,1,8.36,2.94c1,.43,2.07.84,3.11,1.26l-1.31.64c-1.15.54-2.18,1.27-3.3,1.87a7.31,7.31,0,0,0-1.62-.07A14.4,14.4,0,0,0,56.76,41,51.49,51.49,0,0,0,46.7,48.25a3.18,3.18,0,0,1-1.34-.07,20.67,20.67,0,0,1-6-2.09,59.47,59.47,0,0,0-9.08-3.76A5.69,5.69,0,0,0,27,42.09c-1.36.4-1.55.73-1,1.94-2-1.37-3.8-2.9-5.68-4.38-.47-.37-.94-.74-1.39-1.13s-.64-.53-.54-1,.54-.55.91-.67a3.71,3.71,0,0,1,2.14,0,42.87,42.87,0,0,1,7.31,3A16.24,16.24,0,0,0,33,41.38a9.63,9.63,0,0,0,6.44-1.1A46.47,46.47,0,0,0,45,36.43a32.18,32.18,0,0,1,5-3.2,7.68,7.68,0,0,1,2.52-.77c.08,0,.14,0,.16-.1Z"/><path class="cls-2" d="M6.11,80.65a29.88,29.88,0,0,0,1.51-3.37q2-4.55,3.87-9.11a.7.7,0,0,1,.79-.51c1,0,1,0,1.32.87l5,11.84.23.58c-.46,0-.86,0-1.27,0-.25,0-.27-.2-.34-.36-.43-1-.86-2-1.27-3a.56.56,0,0,0-.6-.4q-2.91,0-5.82,0a.59.59,0,0,0-.63.44c-.39,1-.82,1.92-1.19,2.9A.62.62,0,0,1,7,81a7.1,7.1,0,0,0-.92,0Zm6.37-11.38L9.74,75.68c-.1.24-.05.32.21.32H15c.22,0,.29,0,.19-.28Z"/><path class="cls-3" d="M112.38,81.19c-.41,0-1,.12-1.2-.09s-.09-.82-.1-1.24c0-1.11,0-2.22,0-3.32.1-2.14-1.22-3.11-3.37-2.84a3.08,3.08,0,0,0-1.12.4,1.44,1.44,0,0,0-.84,1.43c.06,1.7,0,3.41,0,5.11,0,.42-.09.62-.54.55a1.61,1.61,0,0,0-.49,0c-.24,0-.31-.1-.31-.33,0-2.63,0-5.25,0-7.88,0-.17,0-.37.23-.34s.79-.23.91.2.29.27.51.14a4.6,4.6,0,0,1,3.83-.37,3.31,3.31,0,0,1,2.35,2.49c0,.09,0,.19.11.22Z"/><path class="cls-4" d="M26,44c-.58-1.21-.39-1.54,1-1.94a5.69,5.69,0,0,1,3.34.24,59.47,59.47,0,0,1,9.08,3.76,20.67,20.67,0,0,0,6,2.09,3.18,3.18,0,0,0,1.34.07,1,1,0,0,0,.58.07,13.93,13.93,0,0,0,6.93-2.11c3.43-2,6.41-4.67,9.7-6.87,1.12-.6,2.15-1.33,3.3-1.87l1.31-.64A13.4,13.4,0,0,1,73,36.1a20.63,20.63,0,0,1,4.88.66,53.18,53.18,0,0,1,8.43,3c3,1.3,6.07,2.38,9.06,3.67a13.77,13.77,0,0,1,3.43,2,2.92,2.92,0,0,1,1,1.39c.14.45,0,.67-.46.76a9.36,9.36,0,0,1-3.08,0,77.86,77.86,0,0,1-8.71-1.83,13.08,13.08,0,0,0-8,.53,40.33,40.33,0,0,0-9.22,5.16,117.41,117.41,0,0,0-10.36,8.54,10.36,10.36,0,0,1-4.36,2.55,9.34,9.34,0,0,1-6.57-1,30.75,30.75,0,0,1-6.16-4.26C39.6,54.5,36.2,52,32.8,49.44c-1.94-1.45-3.79-3-5.69-4.54Z"/><path class="cls-3" d="M65.7,81c-.61,0-1.22,0-1.83,0s-.79-.42-1.14-.69a.86.86,0,0,0-1.12-.07,6.72,6.72,0,0,1-10-6.73,6.74,6.74,0,0,1,13.23-.75,6.45,6.45,0,0,1-1.34,5.91c-.3.35-.25.5.11.73.72.48,1.42,1,2.13,1.5ZM58.8,68.88a5.73,5.73,0,0,0-5.3,2.8c-.16.28-.17.44.13.65q4.08,2.85,8.13,5.72c.29.21.43.17.65-.09a5.23,5.23,0,0,0,.88-5.82A5.11,5.11,0,0,0,58.8,68.88ZM61,79.12a.46.46,0,0,0-.1-.12l-7.63-5.39c-.44-.31-.42,0-.44.29A5.49,5.49,0,0,0,61,79.12Z"/><path class="cls-2" d="M41.8,78.88a4.65,4.65,0,0,1-5.4,2.41A4.34,4.34,0,0,1,33,77a4.29,4.29,0,0,1,3.13-4.37,4.39,4.39,0,0,1,5.06,1.87,4.83,4.83,0,0,1,.64,2.6c0,.4-.18.42-.49.42-2.13,0-4.25,0-6.37,0-.63,0-.63,0-.43.58a3.21,3.21,0,0,0,3.57,2,3.37,3.37,0,0,0,2.09-1C40.65,78.57,41.24,78.9,41.8,78.88Zm-4.44-2.61c.89,0,1.78,0,2.66,0,.36,0,.44-.09.35-.44a2.86,2.86,0,0,0-2.82-2.12,3,3,0,0,0-3.06,2c-.12.38-.11.55.37.53C35.69,76.24,36.53,76.27,37.36,76.27Z"/><path class="cls-3" d="M88.35,78.87A4.5,4.5,0,0,1,85,81.36,4.57,4.57,0,0,1,81.67,73a4.51,4.51,0,0,1,5.88,1.19A4.75,4.75,0,0,1,88.36,77c0,.38-.18.46-.53.45-2.12,0-4.25,0-6.37,0-.49,0-.53.16-.4.56a3.21,3.21,0,0,0,3.6,2.06,3.47,3.47,0,0,0,2.09-1C87.18,78.59,87.76,78.89,88.35,78.87Zm-4.44-2.6c.87,0,1.74,0,2.61,0,.41,0,.45-.16.36-.49A2.88,2.88,0,0,0,84,73.72a2.94,2.94,0,0,0-3,2.15c-.08.34,0,.41.31.41C82.16,76.26,83,76.27,83.91,76.27Z"/><path class="cls-3" d="M76.38,76.9c0,1.27,0,2.54,0,3.8,0,.17.11.49-.2.46s-.76.27-.93-.22c-.12-.32-.23-.26-.45-.13a4.49,4.49,0,0,1-3.92.39,3.44,3.44,0,0,1-2.45-3.48c0-1.55,0-3.11,0-4.67,0-.34.11-.46.44-.42a1,1,0,0,0,.17,0c.86,0,.75-.1.76.74,0,1.31,0,2.61,0,3.91-.13,2.64,1.85,3.14,3.62,2.79a3.09,3.09,0,0,0,.85-.34,1.41,1.41,0,0,0,.84-1.42c-.06-1.72,0-3.44,0-5.16,0-.4.09-.59.51-.52a.81.81,0,0,0,.22,0c.53-.1.63.16.61.63C76.37,74.47,76.38,75.69,76.38,76.9Z"/><path class="cls-3" d="M92.09,76.69c0-.78,0-1.56,0-2.33,0-.33-.06-.54-.44-.48s-.41-.16-.4-.45-.15-.93.6-.81c.27,0,.23-.22.23-.39,0-.55,0-1.09,0-1.63,0-.33,0-.49.44-.48,1.11,0,.88-.11.9.88a9.91,9.91,0,0,1,0,1.09c0,.4.07.59.53.55s1,0,1.57,0c.3,0,.45.06.41.39a2.67,2.67,0,0,0,0,.49c0,.28-.08.38-.37.37-.58,0-1.16,0-1.74,0-.31,0-.4.1-.4.4,0,1.58,0,3.15,0,4.73,0,1,.54,1.4,1.52,1.14l.27-.07c.21-.06.45-.33.63-.18a2.89,2.89,0,0,1,.47.78c.1.18,0,.23-.15.29a3.17,3.17,0,0,1-2.66.35A2.15,2.15,0,0,1,92.09,79C92.08,78.25,92.09,77.47,92.09,76.69Z"/><path class="cls-2" d="M45.74,74.33c0,2.1,0,4.2,0,6.3,0,.45-.11.64-.56.56H45c-.44.07-.59-.08-.58-.55,0-1.48,0-3,0-4.45,0-2.76,0-5.51,0-8.26,0-.46.11-.63.57-.55a1.21,1.21,0,0,0,.38,0c.35-.06.4.11.4.43C45.73,70,45.74,72.15,45.74,74.33Z"/><path class="cls-2" d="M27.16,73.24a4.5,4.5,0,0,1,3.08-.86c.27,0,.38,0,.31.37-.2.88-.18.87-1.06,1a3.2,3.2,0,0,0-1.25.31,1.52,1.52,0,0,0-1,1.58c.08,1.7,0,3.4,0,5.1,0,.4-.09.57-.5.5a1.21,1.21,0,0,0-.38,0c-.37.06-.44-.1-.44-.45,0-1.95,0-3.91,0-5.86,0-.58,0-1.16,0-1.74,0-.19-.17-.55.26-.5s.8-.26.91.34C27.11,73.05,27.13,73.12,27.16,73.24Z"/><path class="cls-3" d="M99.56,76.89c0-1.25,0-2.5,0-3.74,0-.4.09-.59.51-.52a2.16,2.16,0,0,0,.44,0c.27,0,.39.06.39.36,0,2.61,0,5.21,0,7.82,0,.33-.14.39-.42.38-1.11,0-.89.12-.9-.88S99.56,78,99.56,76.89Z"/><path class="cls-2" d="M22.32,77c0,1.24,0,2.49,0,3.74,0,.41-.11.56-.51.5a2,2,0,0,0-.49,0c-.23,0-.32,0-.32-.3,0-2.66,0-5.31,0-8,0-.2.06-.28.28-.3,1-.1,1-.08,1,.91Z"/><path class="cls-5" d="M10.18,60.93c-.28.16-.37-.11-.52-.24a1.74,1.74,0,0,0-2.32.1,1.85,1.85,0,0,0,.07,2.46,1.72,1.72,0,0,0,2.28,0c.24-.23.42-.5.29-.81s-.41-.09-.62-.14-.3.06-.46-.24c.46,0,.85,0,1.24,0,.19,0,.12.19.13.31q0,.57,0,1.14c0,.13.1.37-.13.39s-.05-.29-.25-.39a2.13,2.13,0,0,1-2,.36,1.8,1.8,0,0,1-1-.9,2.07,2.07,0,0,1,.77-2.74A1.9,1.9,0,0,1,10.18,60.93Z"/><path class="cls-5" d="M16.66,62a1.87,1.87,0,0,1,1.93-2,1.9,1.9,0,0,1,1.95,2,1.94,1.94,0,1,1-3.88,0Zm1.92,1.72A1.61,1.61,0,0,0,20.24,62a1.58,1.58,0,0,0-1.66-1.69A1.55,1.55,0,0,0,17,62,1.58,1.58,0,0,0,18.58,63.68Z"/><path class="cls-5" d="M14.79,63.86c-.27.15-.34,0-.42-.21-.18-.37-.38-.73-.55-1.12a.49.49,0,0,0-.49-.32c-.79,0-.79,0-.79.76v.7c0,.11,0,.24-.14.24s-.18-.08-.18-.21q0-1.71,0-3.42c0-.2.11-.25.28-.24.45,0,.91,0,1.36,0a1,1,0,0,1,.93.78A1,1,0,0,1,14.31,62c-.29.15-.29.27-.15.53C14.39,63,14.58,63.43,14.79,63.86Zm-2.26-2.7c0,.39-.18.86.59.8,1-.08,1.39-.26,1.39-.82s-.4-.81-1.33-.81C12.53,60.33,12.53,60.33,12.53,61.16Z"/><path class="cls-5" d="M22.33,61.44V60.3c0-.1,0-.23.13-.25s.18.13.18.26v1.9a1.28,1.28,0,1,0,2.54,0c0-.62,0-1.23,0-1.84,0-.14-.05-.33.18-.33s.13.19.13.3c0,.7,0,1.41,0,2.11a1.58,1.58,0,0,1-3.15,0C22.32,62.09,22.33,61.77,22.33,61.44Z"/><path class="cls-5" d="M27.36,62c0-.52,0-1.05,0-1.57,0-.25.05-.37.32-.36.42,0,.84,0,1.25,0a1.08,1.08,0,0,1,1,1.12,1.17,1.17,0,0,1-1,1.17c-.4.06-.94-.17-1.19.09s-.05.79-.08,1.2c0,.1,0,.24-.13.25s-.18-.15-.18-.27Zm.31-.78c0,.92,0,.92.62.92.9,0,1.35-.29,1.36-.88s-.44-.89-1.3-.89C27.67,60.33,27.67,60.33,27.67,61.18Z"/><path class="cls-5" d="M34.27,63.92H32c-.17,0-.16-.16-.16-.29V60.36c0-.22.05-.33.3-.33H34c.11,0,.25,0,.26.13s-.17.14-.28.14c-.51,0-1,0-1.52,0-.26,0-.33.07-.34.33-.05,1.19-.06,1.19,1.11,1.19a1.87,1.87,0,0,1,.78.06v.18c-.43,0-.86,0-1.28,0s-.65.1-.63.61c.05,1,0,1,1,1a3,3,0,0,1,1.15.06Z"/><path class="cls-3" d="M100.88,71c0,.22.13.59-.08.68a3.45,3.45,0,0,1-1.07,0s-.15-.08-.15-.12c0-.45,0-.9,0-1.34,0-.18.23-.13.36-.13C101.09,70.14,100.86,70,100.88,71Z"/><path class="cls-2" d="M21,70.94s0,0,0,0c0-.24-.13-.63.08-.7a3.16,3.16,0,0,1,1.07,0c.11,0,.14.1.14.19,0,.4,0,.8,0,1.19,0,.18-.09.22-.24.21h-.27C21,71.74,21,71.74,21,70.94Z"/></svg>