<svg id="Calque_1" data-name="Calque 1" xmlns="http://www.w3.org/2000/svg" viewBox="0 0 115 115"><defs><style>.cls-1,.cls-2{fill:none;}.cls-2{stroke:#000;stroke-linecap:round;stroke-linejoin:round;stroke-width:2px;}</style></defs><rect class="cls-1" width="115" height="115"/><path d="M53.44,85.08c-.57.62-1.11,1.25-1.69,1.82a5.43,5.43,0,0,1-1.22.92.83.83,0,0,1-1.24-.31,2.93,2.93,0,0,1-.45-1.35,6.49,6.49,0,0,1,.27-2.66,7.72,7.72,0,0,1,1.23-2.32,6.59,6.59,0,0,1,1.83-1.7,1.91,1.91,0,0,1,1.7-.26,4.1,4.1,0,0,1,.68.41c.29-1.55.63-3.09.91-4.65l-.08,0-.48.23c-.22.11-.45.22-.66.35s-.3,0-.39-.18,0-.22.15-.29l2.09-1.15a4,4,0,0,1,.68-.27c.25-.08.41.08.36.35-.09.48-.2,1-.29,1.45-.14.66-.27,1.33-.4,2s-.22,1.11-.34,1.66c-.17.87-.35,1.73-.52,2.59s-.39,2-.59,3c-.12.56-.25,1.11-.36,1.66a1,1,0,0,0,0,.29l.08,0,.75-.85a1.14,1.14,0,0,0,.21-.28c.09-.22.21-.11.34,0a.2.2,0,0,1,.08.32A6.09,6.09,0,0,1,54,87.85a1.41,1.41,0,0,1-.46.11c-.21,0-.32-.12-.4-.3a2.06,2.06,0,0,1,0-1.23C53.25,86,53.35,85.52,53.44,85.08Zm-3.19.16a1.6,1.6,0,0,0,0,.38,4.4,4.4,0,0,0,.24.88c.14.34.38.39.68.19a2.13,2.13,0,0,0,.46-.37c.55-.63,1.1-1.27,1.62-1.91a2,2,0,0,0,.44-.72c.2-.74.34-1.5.48-2.26a1.38,1.38,0,0,0,0-.64,1.51,1.51,0,0,0-.36-.54.91.91,0,0,0-1.32-.19,3,3,0,0,0-.61.57A8,8,0,0,0,50.25,85.24Z"/><path d="M27,84.63A5.21,5.21,0,0,1,28.5,81.1a6.81,6.81,0,0,1,2.64-1.82,1.7,1.7,0,0,1,2.31.94A4.22,4.22,0,0,1,33.88,83a5.35,5.35,0,0,1-1.09,2.62,6.13,6.13,0,0,1-2.11,1.78,9.68,9.68,0,0,1-1.38.55,1.13,1.13,0,0,1-1.14-.27,3.47,3.47,0,0,1-1-1.94C27.09,85.36,27.07,85,27,84.63Zm1.5,0c0,.16,0,.39.06.63a2.49,2.49,0,0,0,.53,1.36,1,1,0,0,0,1,.43,2.06,2.06,0,0,0,1.28-.9,5.45,5.45,0,0,0,.9-2.1,5.08,5.08,0,0,0,0-2.51,2.35,2.35,0,0,0-.78-1.26A.93.93,0,0,0,30.8,80a1.89,1.89,0,0,0-1.21.92A6.73,6.73,0,0,0,28.52,84.61Z"/><path d="M83.69,82.25A5.57,5.57,0,0,1,82.22,86a7,7,0,0,1-2.9,1.88,1.41,1.41,0,0,1-1.74-.58,4.9,4.9,0,0,1-.35-4.63,9.52,9.52,0,0,1,.87-1.39,6.61,6.61,0,0,1,2.05-1.66,3.72,3.72,0,0,1,1.48-.5,1.43,1.43,0,0,1,1.05.43,3,3,0,0,1,.94,2C83.64,81.78,83.67,82,83.69,82.25Zm-1.48.39a3.31,3.31,0,0,0-.63-2.1,1.08,1.08,0,0,0-1.64-.22,3.1,3.1,0,0,0-1,1.28,6.42,6.42,0,0,0-.67,3.5,3.11,3.11,0,0,0,.47,1.41,1,1,0,0,0,.94.53,1.58,1.58,0,0,0,1-.48,4.26,4.26,0,0,0,1-1.54A7.79,7.79,0,0,0,82.21,82.64Z"/><path d="M37.29,74.91l-.7.32c-.14.07-.27.13-.4.21s-.27.1-.37-.09-.08-.3.12-.4l2.21-1.22a1.39,1.39,0,0,1,.36-.12c.34,0,.5.11.45.45s-.15.78-.23,1.17c-.12.57-.23,1.14-.35,1.71s-.19.88-.28,1.32-.22,1.12-.34,1.68-.27,1.29-.4,1.94l-.51,2.51c-.15.7-.31,1.4-.45,2.1,0,.17-.1.38.12.52a4.21,4.21,0,0,0,1.11-1,1.3,1.3,0,0,0,.15-.18c.18-.24.3,0,.44.06s0,.21-.06.3A5.94,5.94,0,0,1,36.5,87.7a2,2,0,0,1-.79.25c-.39,0-.62-.18-.71-.58a3.3,3.3,0,0,1,.08-1.43c.14-.71.29-1.43.44-2.14s.26-1.17.38-1.75l.39-2c.12-.61.25-1.2.37-1.8l.39-2c.08-.37.15-.74.22-1.11A1.8,1.8,0,0,0,37.29,74.91Z"/><path d="M9,87.08c.27-.22.5-.39.71-.58s.42-.46.65-.67a.23.23,0,0,1,.24,0c.09.08.28.13.17.32a.65.65,0,0,1-.16.21c-.45.42-.9.85-1.38,1.23a1.49,1.49,0,0,1-1,.39.68.68,0,0,1-.64-.47,2.4,2.4,0,0,1,0-1.38c.15-.82.33-1.64.5-2.47.14-.67.29-1.35.42-2s.27-1.39.4-2.09l.27-1.24c.14-.72.29-1.43.44-2.15.06-.3.13-.6.19-.9,0-.08,0-.18,0-.31L9.52,75l-.81.4c-.27.14-.38.11-.45-.19A.3.3,0,0,1,8.38,75q.94-.54,1.89-1a3.59,3.59,0,0,1,.66-.31c.36-.11.53,0,.5.39s-.11.69-.17,1c-.11.59-.23,1.17-.35,1.76s-.2.89-.29,1.33l-.42,2.08c-.11.54-.23,1.07-.34,1.61S9.64,83,9.52,83.55s-.24,1.09-.35,1.63-.21,1-.3,1.55C8.85,86.82,8.92,86.92,9,87.08Z"/><path d="M72.78,86.91c.08-.47.15-.93.24-1.4.18-.9.37-1.81.56-2.72l.66-3.2L74.78,77c.12-.62.25-1.24.37-1.87a.14.14,0,0,0,0-.12A.25.25,0,0,0,75,75c-.33.15-.65.3-1,.47s-.25,0-.31-.13-.11-.24.06-.34L76,73.73c.21-.12.5-.24.66-.06a.88.88,0,0,1,.08.65c-.12.72-.28,1.43-.42,2.14s-.35,1.61-.52,2.42-.38,1.88-.57,2.82-.45,2.08-.66,3.13c-.12.57-.24,1.15-.34,1.73a1.59,1.59,0,0,0,.06.43,1.55,1.55,0,0,0,.39-.18c.33-.31.65-.63,1-1,.12-.13.2-.11.31,0s.2.22.07.37a7.86,7.86,0,0,1-1.7,1.5,1.44,1.44,0,0,1-.92.24c-.37,0-.55-.32-.62-.76a2.8,2.8,0,0,1,0-.29Z"/><path d="M41,88a1.87,1.87,0,0,1-1.71-1.09A3.45,3.45,0,0,1,38.83,85a7,7,0,0,1,1.1-3.61,5.39,5.39,0,0,1,1.49-1.63,3.48,3.48,0,0,1,1.68-.66,3.33,3.33,0,0,1,1.37.15,1.35,1.35,0,0,1,.75,1.43,2.59,2.59,0,0,1-1.39,1.82,10.32,10.32,0,0,1-3,1.29c-.41.11-.38.42-.42.69a2.92,2.92,0,0,0,.21,1.77A1.38,1.38,0,0,0,42,87,4.37,4.37,0,0,0,44,86c.11-.07.21-.13.29,0s.28.26.06.42-.67.48-1,.69a5.81,5.81,0,0,1-2,.81A1.79,1.79,0,0,1,41,88Zm-.38-4.64.09.09c.62-.26,1.26-.5,1.86-.8a2.25,2.25,0,0,0,1.32-2.22.64.64,0,0,0-.66-.67,1.6,1.6,0,0,0-1.31.69,5.47,5.47,0,0,0-.63,1C41,82.05,40.81,82.69,40.59,83.31Z"/><path d="M17.46,88a1.92,1.92,0,0,1-1.74-1.13,4,4,0,0,1-.35-2.59A7.24,7.24,0,0,1,16,82.21,6.93,6.93,0,0,1,17,80.59a4.69,4.69,0,0,1,1.47-1.15,3,3,0,0,1,1.81-.29,2.77,2.77,0,0,1,.7.18,1.11,1.11,0,0,1,.67.89,1.85,1.85,0,0,1-.43,1.5,6.64,6.64,0,0,1-2.83,1.73c-.39.15-.8.27-1.2.4a.45.45,0,0,0-.34.38,3.62,3.62,0,0,0,.06,1.82,1.41,1.41,0,0,0,1.78.94,5.17,5.17,0,0,0,1.72-.91c.24-.17.39-.14.46.14a.29.29,0,0,1-.07.24,8.14,8.14,0,0,1-2.7,1.42A4.92,4.92,0,0,1,17.46,88Zm-.41-4.6c.39-.13.72-.22,1-.35A4,4,0,0,0,19.82,82a2.36,2.36,0,0,0,.52-1.53.68.68,0,0,0-.55-.72,1.5,1.5,0,0,0-1.19.42A4.45,4.45,0,0,0,17.48,82C17.33,82.46,17.21,82.9,17.05,83.38Z"/><path d="M57.11,85a6.64,6.64,0,0,1,1.49-4.21,4.4,4.4,0,0,1,1.79-1.43,3.15,3.15,0,0,1,1.66-.25,1.91,1.91,0,0,1,.9.29,1.4,1.4,0,0,1,.5,1.4,2.82,2.82,0,0,1-1.52,1.8A11.64,11.64,0,0,1,59,83.84a.46.46,0,0,0-.39.42,3.47,3.47,0,0,0,.08,1.81A1.4,1.4,0,0,0,60.5,87a5.39,5.39,0,0,0,1.74-.92c.11-.08.23-.2.34,0s.24.25,0,.43a8.09,8.09,0,0,1-2.68,1.4,1.9,1.9,0,0,1-2.08-.54,2.92,2.92,0,0,1-.72-2Zm1.74-1.71.07.06c.54-.21,1.1-.4,1.64-.64a2.39,2.39,0,0,0,1.55-2.21c0-.69-.35-.93-1-.78A2,2,0,0,0,60,80.6a6.61,6.61,0,0,0-.85,1.85C59,82.74,58.94,83,58.85,83.32Z"/><path d="M101.25,84.27l.53-1.4a11.2,11.2,0,0,1,1.33-2.82,4,4,0,0,1,.75-.78.88.88,0,0,1,.58-.14.58.58,0,0,1,.51.68,2.53,2.53,0,0,1-.27.83c-.15.3-.47.26-.73.21a.62.62,0,0,0-.66.26,5.76,5.76,0,0,0-.86,1.58c-.34.89-.71,1.78-1,2.68-.21.6-.34,1.22-.51,1.83,0,.12,0,.25-.07.37a.43.43,0,0,1-.51.39h-.64c-.18,0-.28-.07-.25-.25.06-.45.12-.89.2-1.34q.15-1,.33-1.92c.1-.54.21-1.07.3-1.6s.21-1.27.31-1.91a1,1,0,0,0,0-.24c-.26-.06-.37.13-.49.27s-.35.42-.53.64-.15.19-.28.06-.27-.24-.09-.43.44-.53.68-.78.7-.71,1.06-1a1.43,1.43,0,0,1,.46-.27.51.51,0,0,1,.66.47,7.48,7.48,0,0,1-.26,2.16c-.17.79-.37,1.57-.56,2.36C101.23,84.15,101.24,84.17,101.25,84.27Z"/><path d="M105.09,88a2.31,2.31,0,0,1-1.36-.32.86.86,0,0,1-.29-1,.66.66,0,0,1,.85-.36,6.94,6.94,0,0,1,1,.51,1.62,1.62,0,0,0,1.31.31,1,1,0,0,0,.71-1.36,6.78,6.78,0,0,0-.75-1.19c-.39-.52-.83-1-1.21-1.51a2,2,0,0,1,.06-2.39,3.53,3.53,0,0,1,1.76-1.4,1.61,1.61,0,0,1,1.73.2,1.09,1.09,0,0,1,.25,1.32.59.59,0,0,1-1,0c-.09-.16-.2-.3-.28-.46a.67.67,0,0,0-1.1-.21,1.29,1.29,0,0,0-.63,1.19,2,2,0,0,0,.36.83,10.76,10.76,0,0,0,.87,1,3.27,3.27,0,0,1,1,2,2.32,2.32,0,0,1-.62,1.8,3,3,0,0,1-1.9.91Z"/><path d="M89.78,88c-.26,0-.61-.09-1-.18a1,1,0,0,1-.66-.84.72.72,0,0,1,.93-.69,5.75,5.75,0,0,1,.86.43,2.55,2.55,0,0,0,1.22.45,1.06,1.06,0,0,0,1-1.47,5.36,5.36,0,0,0-.9-1.31c-.34-.42-.69-.82-1-1.26a2,2,0,0,1,.07-2.55,3.58,3.58,0,0,1,1.9-1.38,1.43,1.43,0,0,1,1.73.54,1,1,0,0,1,.09,1,.57.57,0,0,1-1,.16,3.32,3.32,0,0,1-.4-.58.67.67,0,0,0-1-.29,1.49,1.49,0,0,0-.78,1.11,1.08,1.08,0,0,0,.19.69,13.51,13.51,0,0,0,1,1.2,4.64,4.64,0,0,1,1,1.58,2.38,2.38,0,0,1-.56,2.48,2.86,2.86,0,0,1-1.81.83Z"/><path d="M64.69,88a2.31,2.31,0,0,1-1.36-.32A.9.9,0,0,1,63,86.6a.74.74,0,0,1,.94-.29,9.27,9.27,0,0,1,1,.53,1.63,1.63,0,0,0,1.3.27A1,1,0,0,0,67,86a2.87,2.87,0,0,0-.64-1.22c-.48-.61-1-1.19-1.43-1.82A1.85,1.85,0,0,1,65,80.7a3.76,3.76,0,0,1,1.79-1.45,1.82,1.82,0,0,1,1.43,0,1.19,1.19,0,0,1,.63,1.37.59.59,0,0,1-.47.44.58.58,0,0,1-.63-.28c-.09-.15-.18-.31-.28-.46-.27-.41-.57-.59-1.06-.25a1.35,1.35,0,0,0-.68,1.26,1.86,1.86,0,0,0,.52,1c.44.54.93,1,1.32,1.61a2.48,2.48,0,0,1-.31,3.16,3,3,0,0,1-1.73.79C65.24,87.94,65,88,64.69,88Z"/><path d="M23.05,85.49a2.09,2.09,0,0,0,.26,1,1,1,0,0,0,1.4.38,3.26,3.26,0,0,0,1.42-1.1c.15-.21.28,0,.4,0a.19.19,0,0,1,0,.32,7,7,0,0,1-1.65,1.37,2.82,2.82,0,0,1-1.48.45,1.71,1.71,0,0,1-1.68-1.3,3.77,3.77,0,0,1,0-2,12.22,12.22,0,0,1,.41-1.58,7.44,7.44,0,0,1,1-1.92,10.72,10.72,0,0,1,.92-1.1,3,3,0,0,1,2.52-1,.85.85,0,0,1,.78.49.89.89,0,0,1-.08.82.94.94,0,0,1-1.06.12,9,9,0,0,0-.84-.38.58.58,0,0,0-.59.18,3,3,0,0,0-.84,1.32c-.27.81-.5,1.63-.7,2.45A12.72,12.72,0,0,0,23.05,85.49Z"/><path d="M96.15,80.47l-.7.66c-.08.08-.14.2-.24.26s-.23.09-.29,0-.22-.24-.09-.39a9.29,9.29,0,0,1,1.88-1.72,1.58,1.58,0,0,1,.52-.21.42.42,0,0,1,.55.42,12.66,12.66,0,0,1-.15,1.38c-.11.68-.27,1.36-.41,2-.22,1.09-.45,2.18-.67,3.27a1.38,1.38,0,0,0,0,.35c0,.12.08.2.2.09a7.68,7.68,0,0,0,.59-.55,4.29,4.29,0,0,0,.43-.51.2.2,0,0,1,.33,0c.14.11.22.22.1.37a3.52,3.52,0,0,1-.43.51c-.47.43-.94.87-1.44,1.27a1.5,1.5,0,0,1-.67.24c-.37.09-.66-.27-.64-.64A9.25,9.25,0,0,1,95.13,86c.12-.7.28-1.39.42-2.08.19-1,.39-1.94.58-2.91,0-.16.07-.33.11-.5Z"/><path d="M86,80.47l-.71.67a2.31,2.31,0,0,0-.2.24c-.1.11-.22.19-.34.05s-.2-.26,0-.42c.5-.49,1-1,1.52-1.46a2.55,2.55,0,0,1,.82-.42c.31-.11.55.12.58.44a6.93,6.93,0,0,1-.25,1.81c-.14.76-.31,1.52-.47,2.28l-.57,2.81a.59.59,0,0,0,.07.24.48.48,0,0,0,.18-.07c.32-.32.65-.63.94-1,.14-.17.23-.23.41-.08s.13.24,0,.39a8.58,8.58,0,0,1-1.79,1.72,1.57,1.57,0,0,1-.63.25c-.51.08-.7-.27-.7-.64a7.1,7.1,0,0,1,.12-1.22c.1-.57.23-1.14.34-1.71l.33-1.54c.13-.63.25-1.27.38-1.9,0-.13,0-.27.07-.41Z"/><path d="M15.61,76a3.47,3.47,0,0,1-1.06,2.54,6.65,6.65,0,0,1-1.77,1.35c-.08,0-.26,0-.3,0s-.23-.29,0-.45.42-.3.62-.46a3.18,3.18,0,0,0,1-1.26A1.24,1.24,0,0,0,14,76.63a6.18,6.18,0,0,1-.45-1,1,1,0,0,1,.58-1.23,1,1,0,0,1,1.24.55,8.32,8.32,0,0,1,.27,1Z"/><path d="M21.93,73.79c-.11.19-.18.34-.27.47L19,78a2.69,2.69,0,0,0-.2.27c-.12.24-.33.19-.53.17,0,0-.09-.13-.07-.18.17-.38.35-.77.54-1.15.28-.6.58-1.2.86-1.8l.63-1.36a.3.3,0,0,1,.21-.12Z"/><path d="M88.65,75.56a1.88,1.88,0,0,1-.55,1.29.76.76,0,0,1-.75.17.58.58,0,0,1-.37-.58,2.19,2.19,0,0,1,.47-1.5.79.79,0,0,1,.81-.23C88.51,74.79,88.65,75.07,88.65,75.56Z"/><path d="M98.85,75.48a1.93,1.93,0,0,1-.5,1.31.76.76,0,0,1-.82.21.62.62,0,0,1-.35-.67,2,2,0,0,1,.34-1.2.83.83,0,0,1,.8-.45A.69.69,0,0,1,98.85,75.48Z"/><path d="M71.86,51.45l1,4.08c-1.41-.53-2.76-1-4.1-1.53-.69-.27-1.27-.09-1.18.53.21,1.55-.71,2.67-1.26,3.95-.71,1.63-.23,2.38,1.55,2.48L69.2,61a8.28,8.28,0,0,1-4.69,2.32c-3,.48-5.31-1.62-4.9-4.23a13.56,13.56,0,0,0,0-1.48L57,62c-.62-1.12-1.22-2.17-1.78-3.25-.2-.38.31-1.08-.4-1.2-.31-.06-.69.29-1,.46a25.44,25.44,0,0,1-3.84,1.49A1.5,1.5,0,0,0,49.07,62a9.86,9.86,0,0,1,1.06,1.29c-2-.47-4-1-5.45-2.69A5.19,5.19,0,0,1,43.74,57c0-.9.57-1.28,1-1.8.31-.34.65-.65,1.07-1.07-1.57-.44-2.78.31-4,.62-.84.22-.59-.3-.52-.51.42-1.3.92-2.59,1.37-3.88a5,5,0,0,0,.08-.88c-1.92.42-3.33-.64-4.84-1.43-.93-.49-1.67-.2-2.16.83-.23.48-.39,1-.66,1.73a6.88,6.88,0,0,1-.9-1.51c-.46-1.77-1.31-3.41-.4-5.42,1-2.3,2-2.94,4.47-2.08.11,0,.29-.08.52-.15-1-1.44-2.67-1.85-4-3.07a21.37,21.37,0,0,0,3.64-1.71c1-.73,1-.74.31-1.82-.37-.57-.95-1.28-.87-1.83.27-1.76-1-2.39-2-3.54l-1.79,1.72c-.11-.1-.22-.17-.22-.22a8.58,8.58,0,0,1,3.58-5.71c2-1,3.82-.51,5.38,1.87-.23-1.26.24-2.07-.35-2.94-.21-.31,0-.87,0-1.32.34.12.68.26,1,.36a16.39,16.39,0,0,1,2,.56c1.55.66,2,.67,2.15-.73a14.39,14.39,0,0,1,1.17-3c.74-2,.46-2.73-1.61-3.22a1.71,1.71,0,0,1-.4-.21,11.54,11.54,0,0,1,3-1.57c1.87-.43,3.59-.35,5.06,1.17a2.48,2.48,0,0,1,.84,2.14c-.08.8,0,1.6,0,2.7l2.73-4.48c.49.94.88,1.65,1.23,2.37.2.41.3.86.5,1.27.65,1.29.65,1.23,1.85.49a16.67,16.67,0,0,1,2.89-1.38c1.26-.49,1.69-1.57.86-2.56A11.79,11.79,0,0,0,64,15.52a6.87,6.87,0,0,1,4.31,1,5.47,5.47,0,0,1,3.1,4.06A4.63,4.63,0,0,1,71,22.81a2.06,2.06,0,0,1-1.67,1.53c-.09,0-.15.19-.37.48a18.27,18.27,0,0,0,4.53-1.1c-.51,1.38-1,2.54-1.37,3.72s0,1.63,1.17,1.83c.38.07.86,0,1.14.23,1.19.89,2.5.85,4,.67v-2.4c1.42.62,1.43,1.95,1.94,2.94a3.14,3.14,0,0,1,.45,2,13.14,13.14,0,0,1-.48,2,4.22,4.22,0,0,1-3.25,2.47c-.38.06-.77.05-1.36.09,1.15.87,2.54.84,3.18,2L76,40.9a10.1,10.1,0,0,0-1.19.71c-.39.28-.48.67-.07,1a6.59,6.59,0,0,1,2,3.41c.46,1.45.91,1.66,2,1.57.74-.06.74-.06,1.61-1.55.47,1.58-.31,2.85-.89,4.05a5.7,5.7,0,0,1-2.93,2.7,2.58,2.58,0,0,1-2.5,0C73.34,52.4,72.76,52,71.86,51.45Zm-26.4-4.36a18,18,0,0,1-.9,3.34c-.23.49-.41,1.23-.26,1.31.45.25,1.38.47,1.54.26.72-.92,2,.08,2.62-.93l1.69.67c-.14.34-.26.69-.42,1a2.81,2.81,0,0,1-.53,1A9,9,0,0,1,47,55.6,3.29,3.29,0,0,0,45.27,58c-.19,1,.76,1.33,1.27,1.92,0,0,.16,0,.24,0,1-1.38,1-1.44,3-2.26a9.24,9.24,0,0,0,3.6-2.65c.3-.35.45-.81.72-1.18.38-.53.85-.52,1.17,0a13.21,13.21,0,0,1,.89,1.86,14.91,14.91,0,0,0,.56,1.5c.08.14.71.2.78.09A11,11,0,0,0,58.88,55a1.83,1.83,0,0,1,2.52-1.34c.19.69.41,1.35.56,2,.08.38.22.92,0,1.14-.81,1-.33,2-.38,3.06-.06,1.21.33,1.54,1.52,1.61.47,0,.93,0,1.5,0-.76-1.62-.91-2.46,0-3.71a5.36,5.36,0,0,0,.91-3.6,4.48,4.48,0,0,0-.43-2c-.45-.9.46-1.63,1.43-1.27s2.13.81,3.36,1.29a4.55,4.55,0,0,0,0-1.39,11,11,0,0,1-.85-3.6c0-.65.49-.74,1.19-.58a3.38,3.38,0,0,1,2.68,2.29c.27.9,1,1.28,1.47,1.86a1.65,1.65,0,0,0,2.16,0,10.33,10.33,0,0,0,.88-.87c-1.07-.86-2.23-2-2.36-2.92-.28-1.92-1.63-2.85-3-3.77s-1.5-1.61.08-2.48l2.82-1.59c-1.4-1.32-3.26-1.67-4.38-3.14C72.32,34.26,74.1,34.55,76,35c1.5.36,2,.32,2.71-.77a1.82,1.82,0,0,0,.16-1.77,28.12,28.12,0,0,1-3.93-.74c-1.58-.54-3-1.07-4.66,0-.77.5-1.33-.07-1.2-1.09a3.57,3.57,0,0,1,.27-.88c.23-.65.51-1.28.7-1.93s0-1.09-.86-1a6.38,6.38,0,0,0-2.72.54c-1.07.74-1.22-.24-1.6-.62-.15-.16,0-.88.26-1.13.78-.81,1.66-1.52,2.51-2.27a20.2,20.2,0,0,0,1.62-1.45,2.41,2.41,0,0,0-.11-2.66c-.34-.38-.85-.72-1,.07s-.78.84-1.31,1.18c-1.29.85-2.9,1.05-4,2.31a12.9,12.9,0,0,0-1.57,2.1c-.4.71-.77.52-1.06.11a9.89,9.89,0,0,1-.94-1.83c-.27-.61-.49-1.24-.72-1.85-1.33.28-1.73,1.35-2.13,2.22a3.72,3.72,0,0,1-1.51,1.75c-.24.14-.72-.14-1.1-.23.36-1-.89-2-.42-2.72.7-1-.09-2.28.82-3.16.11-.1-.07-.56-.19-.81-.58-1.27-1.28-1.53-3.1-1.21a2.46,2.46,0,0,1,0,2.87,7.47,7.47,0,0,0-1.1,5,3.66,3.66,0,0,1,0,.74c0,.63.25,1.41-.49,1.76-.57.26-1-.32-1.54-.5-.76-.27-1.4-1.15-2.43-.47.12,1-.26,2.16.47,3.2.2.27.1.82,0,1.21-.11.56-.89.74-1.5.54-1.76-.58-2.58-2.17-3.35-3.55a2,2,0,0,0-2-1.16c-1.09-.08-1.4.72-2.06,1.36,2.06.47,2.28,2.1,2.48,3.5s1.09,2.08,1.77,3a10.79,10.79,0,0,0,2.4,1.75c-.82.59-1.16,1.6-2.3,1.32-.47.88-2,0-2.2,1.29.81.49,1.6,1,2.38,1.45a14,14,0,0,1,1.54,1.06c.76.64.51,1.08-.32,1.72a2.29,2.29,0,0,1-2.49.28c-1-.55-1.9-.25-2.84-.34C36,43,35.47,43.94,35,44.79a1.17,1.17,0,0,0,0,1.11c.19.22,1,.32,1.08.17.61-.78,1-.3,1.63,0a31.41,31.41,0,0,0,3.58,1.5c1.07.4,2-.48,3-.49Z"/><path d="M48.71,36.2c.1,4.14.85,7.94,4.08,10.7a10.53,10.53,0,0,0,6.8,2.72A8.14,8.14,0,0,0,66,47a13.58,13.58,0,0,0,3.18-4.64c1,2-.1,3.34-.82,4.63-1.12,2-5,4.72-7.34,5.42a18.45,18.45,0,0,1-3.24.15c-.74,0-1.49,0-2.23,0-2.21,0-4-1.07-5.79-2.16-2.83-1.68-4-4.52-5.12-7.27a9.05,9.05,0,0,1-.76-5.33,17.44,17.44,0,0,1,1.87-5.4,14.12,14.12,0,0,1,9.13-6.63c1.1-.23,2.27-.72,3.25-.36s2.07.19,3,.47a14,14,0,0,1,3.29,1.57,12.43,12.43,0,0,1,4.7,5.67,3.35,3.35,0,0,1,.38,1.07c.14,1.64-.21,2-1.86,2H48.71Zm8.22-1.48c2.21,0,4.43,0,6.64,0,1.13,0,1.59-.54,1.48-1.64a2.48,2.48,0,0,0-.29-.87,9.23,9.23,0,0,0-2.62-3.56,9.38,9.38,0,0,0-3.82-1.51,4.23,4.23,0,0,0-2.39,0c-.85.29-1.94.2-2.61.8-1.65,1.46-3.29,3-3.63,5.37-.16,1.12-.16,1.36.84,1.38C52.66,34.74,54.79,34.72,56.93,34.72Z"/><path class="cls-2" d="M64.56,29.27a18.78,18.78,0,0,0-1.74-1.47,10.08,10.08,0,0,0-5.93-1.65A7.83,7.83,0,0,0,51.69,28c-.73.68-1.48,1.33-2.22,2"/><path class="cls-2" d="M60.6,50.93a7.55,7.55,0,0,0,4.7-2.11c.61-.54,1.15-1.16,1.74-1.72a7.71,7.71,0,0,0,2.23-4.21"/><path class="cls-2" d="M67.78,34.35c-.41,0-.93-.07-1.22.15a5.8,5.8,0,0,1-3.73,1c-2.72,0-5.44,0-8.17,0-1.23,0-2.48.07-3.71,0s-2.31-.31-3.46-.47"/><path class="cls-2" d="M54.66,53.78c0,.57,0,1.15,0,1.73a1.12,1.12,0,0,1-.49.74,40.45,40.45,0,0,1-3.94,2.29c-.57.22-1.43-.23-1.77.68-.26.68-.64,1.32-1,2"/><path class="cls-2" d="M55.16,22.1a2.56,2.56,0,0,1-.47-2.22c.46-1.54.22-2.68-1.26-3.49a3.29,3.29,0,0,0-4,.26"/><path class="cls-2" d="M40.06,41.9a3.84,3.84,0,0,1-2.48.49c-1.59-.18-2.43.17-3,1.24-.79,1.59-.69,2.33.5,3.71"/><path class="cls-2" d="M60.48,54.52c-.73,2,.29,3.94.19,5.94-.06,1.3,2.18,2.57,3.61,1.9s3.07-.5,4.49-1.16"/><path class="cls-2" d="M66.3,52l.74.75a4.08,4.08,0,0,0-.46,1.48,6.06,6.06,0,0,1-1,3.71,2.69,2.69,0,0,0,.25,3.47"/><path class="cls-2" d="M43.28,28.28c-1.17,0-1.54-1.09-2.22-1.73a3,3,0,0,0-3.72-.24c-.64.53-1.44,1.14-1.43,2s-.82.57-.86,1.24c0,.51-.6,1-.93,1.49"/><path class="cls-2" d="M47.24,53.53c-.15.92-.93,1.37-1.49,2-1.81,1.94-1.64,3.9.5,5.45,1.66,0,2.26,1.83,3.71,2.22"/><path class="cls-2" d="M47,16.65a1.33,1.33,0,0,0,.49,0,1.59,1.59,0,0,1,2,.24,2.66,2.66,0,0,1,.7,2.49,3.87,3.87,0,0,1-.73,1.48c-.88,1.27-.8,2.82-1.15,4.23-.17.73.42,1.64.67,2.46"/><path class="cls-2" d="M36.1,28.78a4.25,4.25,0,0,1,2.55,3.7,6.28,6.28,0,0,0,2.44,3.68c.43.36,1.28.21,1.94.29"/><path class="cls-2" d="M69.76,31c.56-1,1.2-1.69,2.49-1,.92.48,2,.45,3,.9a4.21,4.21,0,0,0,3.66.11"/><path class="cls-2" d="M78.92,48.7c-.64.83-.8,1.94-1.72,2.62a2.77,2.77,0,0,1-3.47.22,6,6,0,0,0-2-1.47c-.07,0-.23,0-.24,0-.23-1.4-1.74-2.2-1.74-3.71"/><path class="cls-2" d="M78.67,39.17c-2.34-.55-3.78,1.15-5.42,2.27-.45.31-.24,1.11.24,1.43a4.78,4.78,0,0,1,2.26,3.47A3.69,3.69,0,0,0,77,48.06a7.12,7.12,0,0,0,1.46.89"/><path class="cls-2" d="M64.81,15.66l1.49,1c1.29.88,1.38,1.77.24,2.72a2.79,2.79,0,0,1-1,.72c-1.85.45-3.23,1.68-4.7,2.75"/><path class="cls-2" d="M78.67,28a19.67,19.67,0,0,1,.48,2,6.1,6.1,0,0,0,.46,2,3.06,3.06,0,0,1-2.67,4.16,17.8,17.8,0,0,1-5.2-.21,4.09,4.09,0,0,0-1,0"/><path class="cls-2" d="M35.11,50.31a7.54,7.54,0,0,1-.24-1.24c0-1.91,1.1-2.67,3-2,.34.13.65.37,1,.48,1.3.41,2.46,1.32,4,1,.5-.1,1.16.73,1,1.2a8.24,8.24,0,0,0-.51,3,.75.75,0,0,1-.7.78,1.27,1.27,0,0,0-1,1.2"/><path class="cls-2" d="M65.8,26.55c1.77-.93,2.63-2.8,4.16-4,1.11-.88.38-3.65-.95-4.38a8.9,8.9,0,0,0-1.48-.51"/><path class="cls-2" d="M43.53,52.79a31.19,31.19,0,0,0,3.46.45c.49,0,1-.45,1.49-.7"/><path class="cls-2" d="M58.38,19.87a29.84,29.84,0,0,0,2,2.82c.7.8-.5,1.66.22,2.38"/><path class="cls-2" d="M72.24,25.07c-.33.16-.94.32-.95.49,0,1.33-.65,2.61-.29,4"/><path class="cls-2" d="M42.78,23.09c0,.08,0,.19,0,.24.48.58,1.27,1.1,1.4,1.75a6.64,6.64,0,0,1-.42,2.46"/><path class="cls-2" d="M43.77,27.79a1.46,1.46,0,0,0,.52,2.2c.61.44.42,1,.47,1.51"/><path class="cls-2" d="M58.38,17.15c0,.49,0,1,0,1.48.06.67-.31,1-.71,1.51a6.48,6.48,0,0,1-2.52,2.19,7.07,7.07,0,0,1-1.23.26"/><path class="cls-2" d="M35.11,38.43c1.94.22,1.94.21,3.21,1.24.6.48,1.38.88,1.69,1.51.58,1.15,1.58,1,2.52,1.21"/><path class="cls-2" d="M55.16,56.5a16,16,0,0,1,1.68,2.74,7.2,7.2,0,0,1,0,2.46"/><path class="cls-2" d="M80.16,46.35a1.88,1.88,0,0,1-.75,1.73"/></svg>