<svg width="375" height="100" viewBox="0 0 375 100" fill="none" xmlns="http://www.w3.org/2000/svg">
<path d="M51.6254 26.735H47.8404V63.4401H51.6254V26.735Z" fill="#BCBCBC"/>
<path d="M57.3134 0H42.155C37.7654 0 34.207 3.6098 34.207 8.06271V21.4181C34.207 25.8711 37.7654 29.4809 42.155 29.4809H57.3134C61.7029 29.4809 65.2614 25.8711 65.2614 21.4181V8.06271C65.2614 3.6098 61.7029 0 57.3134 0Z" fill="#1480C4"/>
<path d="M57.3134 60.1156H42.155C37.7654 60.1156 34.207 63.7254 34.207 68.1783V81.5337C34.207 85.9866 37.7654 89.5964 42.155 89.5964H57.3134C61.7029 89.5964 65.2614 85.9866 65.2614 81.5337V68.1783C65.2614 63.7254 61.7029 60.1156 57.3134 60.1156Z" fill="#1480C4"/>
<path d="M86.364 46.3884H82.579V83.0934H86.364V46.3884Z" fill="#BCBCBC"/>
<path d="M92.0521 70.5192H76.8936C72.5041 70.5192 68.9457 74.129 68.9457 78.5819V91.9373C68.9457 96.3902 72.5041 100 76.8936 100H92.0521C96.4416 100 100 96.3902 100 91.9373V78.5819C100 74.129 96.4416 70.5192 92.0521 70.5192Z" fill="#1480C4"/>
<path d="M17.4183 46.3884H13.6334V83.0934H17.4183V46.3884Z" fill="#BCBCBC"/>
<path d="M23.1064 70.5192H7.94793C3.55841 70.5192 0 74.129 0 78.5819V91.9373C0 96.3902 3.55841 100 7.94793 100H23.1064C27.4959 100 31.0543 96.3902 31.0543 91.9373V78.5819C31.0543 74.129 27.4959 70.5192 23.1064 70.5192Z" fill="#1480C4"/>
<path d="M16.1166 46.3884V50.228L82.5808 50.228V46.3884L16.1166 46.3884Z" fill="#BCBCBC"/>
<path d="M159.248 61H154.854L146.299 46.9668V61H141.904V39.6719H146.299L154.868 53.7344V39.6719H159.248V61ZM162.148 52.9287C162.148 51.3564 162.451 49.9551 163.057 48.7246C163.662 47.4941 164.531 46.542 165.664 45.8682C166.807 45.1943 168.13 44.8574 169.634 44.8574C171.772 44.8574 173.516 45.5117 174.863 46.8203C176.221 48.1289 176.978 49.9062 177.134 52.1523L177.163 53.2363C177.163 55.668 176.484 57.6211 175.127 59.0957C173.77 60.5605 171.948 61.293 169.663 61.293C167.378 61.293 165.552 60.5605 164.185 59.0957C162.827 57.6309 162.148 55.6387 162.148 53.1191V52.9287ZM166.382 53.2363C166.382 54.7402 166.665 55.8926 167.231 56.6934C167.798 57.4844 168.608 57.8799 169.663 57.8799C170.688 57.8799 171.489 57.4893 172.065 56.708C172.642 55.917 172.93 54.6572 172.93 52.9287C172.93 51.4541 172.642 50.3115 172.065 49.501C171.489 48.6904 170.679 48.2852 169.634 48.2852C168.599 48.2852 167.798 48.6904 167.231 49.501C166.665 50.3018 166.382 51.5469 166.382 53.2363ZM188.354 56.6201C188.354 56.1025 188.096 55.6973 187.578 55.4043C187.07 55.1016 186.25 54.833 185.117 54.5986C181.348 53.8076 179.463 52.2061 179.463 49.7939C179.463 48.3877 180.044 47.2158 181.206 46.2783C182.378 45.3311 183.906 44.8574 185.791 44.8574C187.803 44.8574 189.409 45.3311 190.61 46.2783C191.821 47.2256 192.427 48.4561 192.427 49.9697H188.193C188.193 49.3643 187.998 48.8662 187.607 48.4756C187.217 48.0752 186.606 47.875 185.776 47.875C185.063 47.875 184.512 48.0361 184.121 48.3584C183.73 48.6807 183.535 49.0908 183.535 49.5889C183.535 50.0576 183.755 50.4385 184.194 50.7314C184.644 51.0146 185.396 51.2637 186.45 51.4785C187.505 51.6836 188.394 51.918 189.116 52.1816C191.353 53.002 192.471 54.4229 192.471 56.4443C192.471 57.8896 191.851 59.0615 190.61 59.96C189.37 60.8486 187.769 61.293 185.806 61.293C184.478 61.293 183.296 61.0586 182.261 60.5898C181.235 60.1113 180.43 59.4619 179.844 58.6416C179.258 57.8115 178.965 56.918 178.965 55.9609H182.979C183.018 56.7129 183.296 57.2891 183.813 57.6895C184.331 58.0898 185.024 58.29 185.894 58.29C186.704 58.29 187.314 58.1387 187.725 57.8359C188.145 57.5234 188.354 57.1182 188.354 56.6201ZM211.587 49.1201C211.011 49.042 210.503 49.0029 210.063 49.0029C208.462 49.0029 207.412 49.5449 206.914 50.6289V61H202.681V45.1504H206.68L206.797 47.04C207.646 45.585 208.823 44.8574 210.327 44.8574C210.796 44.8574 211.235 44.9209 211.646 45.0479L211.587 49.1201ZM220.64 61.293C218.315 61.293 216.421 60.5801 214.956 59.1543C213.501 57.7285 212.773 55.8291 212.773 53.4561V53.0459C212.773 51.4541 213.081 50.0332 213.696 48.7832C214.312 47.5234 215.181 46.5566 216.304 45.8828C217.437 45.1992 218.726 44.8574 220.171 44.8574C222.339 44.8574 224.043 45.541 225.283 46.9082C226.533 48.2754 227.158 50.2139 227.158 52.7236V54.4521H217.065C217.202 55.4873 217.612 56.3174 218.296 56.9424C218.989 57.5674 219.863 57.8799 220.918 57.8799C222.549 57.8799 223.823 57.2891 224.741 56.1074L226.821 58.4365C226.187 59.335 225.327 60.0381 224.243 60.5459C223.159 61.0439 221.958 61.293 220.64 61.293ZM220.156 48.2852C219.316 48.2852 218.633 48.5684 218.105 49.1348C217.588 49.7012 217.256 50.5117 217.109 51.5664H222.998V51.2295C222.979 50.292 222.725 49.5693 222.236 49.0615C221.748 48.5439 221.055 48.2852 220.156 48.2852ZM220.537 38.5H225.151L221.094 43.041H217.651L220.537 38.5ZM230.732 61V48.2559H228.374V45.1504H230.732V43.8027C230.732 42.0254 231.24 40.6484 232.256 39.6719C233.281 38.6855 234.712 38.1924 236.548 38.1924C237.134 38.1924 237.852 38.29 238.701 38.4854L238.657 41.7666C238.306 41.6787 237.876 41.6348 237.368 41.6348C235.776 41.6348 234.98 42.3818 234.98 43.876V45.1504H238.13V48.2559H234.98V61H230.732ZM247.271 61.293C244.946 61.293 243.052 60.5801 241.587 59.1543C240.132 57.7285 239.404 55.8291 239.404 53.4561V53.0459C239.404 51.4541 239.712 50.0332 240.327 48.7832C240.942 47.5234 241.812 46.5566 242.935 45.8828C244.067 45.1992 245.356 44.8574 246.802 44.8574C248.97 44.8574 250.674 45.541 251.914 46.9082C253.164 48.2754 253.789 50.2139 253.789 52.7236V54.4521H243.696C243.833 55.4873 244.243 56.3174 244.927 56.9424C245.62 57.5674 246.494 57.8799 247.549 57.8799C249.18 57.8799 250.454 57.2891 251.372 56.1074L253.452 58.4365C252.817 59.335 251.958 60.0381 250.874 60.5459C249.79 61.0439 248.589 61.293 247.271 61.293ZM246.787 48.2852C245.947 48.2852 245.264 48.5684 244.736 49.1348C244.219 49.7012 243.887 50.5117 243.74 51.5664H249.629V51.2295C249.609 50.292 249.355 49.5693 248.867 49.0615C248.379 48.5439 247.686 48.2852 246.787 48.2852ZM247.168 38.5H251.782L247.725 43.041H244.282L247.168 38.5ZM265.112 49.1201C264.536 49.042 264.028 49.0029 263.589 49.0029C261.987 49.0029 260.938 49.5449 260.439 50.6289V61H256.206V45.1504H260.205L260.322 47.04C261.172 45.585 262.349 44.8574 263.853 44.8574C264.321 44.8574 264.761 44.9209 265.171 45.0479L265.112 49.1201ZM274.165 61.293C271.841 61.293 269.946 60.5801 268.481 59.1543C267.026 57.7285 266.299 55.8291 266.299 53.4561V53.0459C266.299 51.4541 266.606 50.0332 267.222 48.7832C267.837 47.5234 268.706 46.5566 269.829 45.8828C270.962 45.1992 272.251 44.8574 273.696 44.8574C275.864 44.8574 277.568 45.541 278.809 46.9082C280.059 48.2754 280.684 50.2139 280.684 52.7236V54.4521H270.591C270.728 55.4873 271.138 56.3174 271.821 56.9424C272.515 57.5674 273.389 57.8799 274.443 57.8799C276.074 57.8799 277.349 57.2891 278.267 56.1074L280.347 58.4365C279.712 59.335 278.853 60.0381 277.769 60.5459C276.685 61.0439 275.483 61.293 274.165 61.293ZM273.682 48.2852C272.842 48.2852 272.158 48.5684 271.631 49.1348C271.113 49.7012 270.781 50.5117 270.635 51.5664H276.523V51.2295C276.504 50.292 276.25 49.5693 275.762 49.0615C275.273 48.5439 274.58 48.2852 273.682 48.2852ZM286.997 45.1504L287.129 46.9814C288.262 45.5654 289.78 44.8574 291.685 44.8574C293.364 44.8574 294.614 45.3506 295.435 46.3369C296.255 47.3232 296.675 48.7979 296.694 50.7607V61H292.461V50.8633C292.461 49.9648 292.266 49.3154 291.875 48.915C291.484 48.5049 290.835 48.2998 289.927 48.2998C288.735 48.2998 287.842 48.8076 287.246 49.8232V61H283.013V45.1504H286.997ZM306.509 57.8799C307.29 57.8799 307.925 57.665 308.413 57.2354C308.901 56.8057 309.155 56.2344 309.175 55.5215H313.145C313.135 56.5957 312.842 57.582 312.266 58.4805C311.689 59.3691 310.898 60.0625 309.893 60.5605C308.896 61.0488 307.793 61.293 306.582 61.293C304.316 61.293 302.529 60.5752 301.221 59.1396C299.912 57.6943 299.258 55.7021 299.258 53.1631V52.8848C299.258 50.4434 299.907 48.4951 301.206 47.04C302.505 45.585 304.287 44.8574 306.553 44.8574C308.535 44.8574 310.122 45.4238 311.313 46.5566C312.515 47.6797 313.125 49.1787 313.145 51.0537H309.175C309.155 50.2334 308.901 49.5693 308.413 49.0615C307.925 48.5439 307.28 48.2852 306.479 48.2852C305.493 48.2852 304.746 48.6465 304.238 49.3691C303.74 50.082 303.491 51.2441 303.491 52.8555V53.2949C303.491 54.9258 303.74 56.0977 304.238 56.8105C304.736 57.5234 305.493 57.8799 306.509 57.8799ZM322.856 61.293C320.532 61.293 318.638 60.5801 317.173 59.1543C315.718 57.7285 314.99 55.8291 314.99 53.4561V53.0459C314.99 51.4541 315.298 50.0332 315.913 48.7832C316.528 47.5234 317.397 46.5566 318.521 45.8828C319.653 45.1992 320.942 44.8574 322.388 44.8574C324.556 44.8574 326.26 45.541 327.5 46.9082C328.75 48.2754 329.375 50.2139 329.375 52.7236V54.4521H319.282C319.419 55.4873 319.829 56.3174 320.513 56.9424C321.206 57.5674 322.08 57.8799 323.135 57.8799C324.766 57.8799 326.04 57.2891 326.958 56.1074L329.038 58.4365C328.403 59.335 327.544 60.0381 326.46 60.5459C325.376 61.0439 324.175 61.293 322.856 61.293ZM322.373 48.2852C321.533 48.2852 320.85 48.5684 320.322 49.1348C319.805 49.7012 319.473 50.5117 319.326 51.5664H325.215V51.2295C325.195 50.292 324.941 49.5693 324.453 49.0615C323.965 48.5439 323.271 48.2852 322.373 48.2852ZM340.376 56.6201C340.376 56.1025 340.117 55.6973 339.6 55.4043C339.092 55.1016 338.271 54.833 337.139 54.5986C333.369 53.8076 331.484 52.2061 331.484 49.7939C331.484 48.3877 332.065 47.2158 333.228 46.2783C334.399 45.3311 335.928 44.8574 337.812 44.8574C339.824 44.8574 341.431 45.3311 342.632 46.2783C343.843 47.2256 344.448 48.4561 344.448 49.9697H340.215C340.215 49.3643 340.02 48.8662 339.629 48.4756C339.238 48.0752 338.628 47.875 337.798 47.875C337.085 47.875 336.533 48.0361 336.143 48.3584C335.752 48.6807 335.557 49.0908 335.557 49.5889C335.557 50.0576 335.776 50.4385 336.216 50.7314C336.665 51.0146 337.417 51.2637 338.472 51.4785C339.526 51.6836 340.415 51.918 341.138 52.1816C343.374 53.002 344.492 54.4229 344.492 56.4443C344.492 57.8896 343.872 59.0615 342.632 59.96C341.392 60.8486 339.79 61.293 337.827 61.293C336.499 61.293 335.317 61.0586 334.282 60.5898C333.257 60.1113 332.451 59.4619 331.865 58.6416C331.279 57.8115 330.986 56.918 330.986 55.9609H335C335.039 56.7129 335.317 57.2891 335.835 57.6895C336.353 58.0898 337.046 58.29 337.915 58.29C338.726 58.29 339.336 58.1387 339.746 57.8359C340.166 57.5234 340.376 57.1182 340.376 56.6201Z" fill="black"/>
</svg>
